<?xml version="1.0" encoding="utf-8"?>
<!-- Generator: Adobe Illustrator 25.2.1, SVG Export Plug-In . SVG Version: 6.00 Build 0)  -->
<svg version="1.1" id="Layer_1" xmlns="http://www.w3.org/2000/svg" xmlns:xlink="http://www.w3.org/1999/xlink" x="0px" y="0px"
	 viewBox="0 0 2000 2000" style="enable-background:new 0 0 2000 2000;" xml:space="preserve">
<style type="text/css">
	.st0{fill:#3D0354;}
	.st1{fill:#FFFFFF;}
	.st2{opacity:0.55;}
	.st3{opacity:0.5;}
</style>
<g>
	<g>
		<g>
			<g>
				<path class="st0" d="M258.3,1676.5c3.5-0.8,13.1-8.1,15.9-10.2c2.8-2.1,12.4-12.9,14.5-17.5c2.1-4.5,12.8-9.9,16-12.2
					c3.2-2.3,153.4-177.3,155.1-178.4c1.7-1.1,87.2-99.4,88.2-100.1c0.9-0.7,0.6-14.5,0.5-16.9c-0.2-2.4,30.1-24.4,32.4-26.1
					c1.4-1,7.3-8.5,12-14.4l-4.5-3.9l-19.7,22.8l-6.8-5.9l-27.2,31.4l6.8,5.9l-247,285.2l-2.6-2.2l-4.8,5.6l-7.1,8.2l4.3,3.7
					l-15.6,18l-4.3-3.7l-9.6,11.1C255.9,1676.8,257.1,1676.8,258.3,1676.5z"/>
				<path class="st0" d="M218.3,1728.9c0.9-3,3.8-7.2,4.4-9c1-2.9-2.8-6.4,1.2-12.1c3.9-5.7,22.8-26.7,24.8-29.2
					c0,0,0.1-0.1,0.1-0.1l-8.4,1.1l-25.3,29.2l4.7,4.1l-8.6,9.9L218.3,1728.9z"/>
				<path class="st0" d="M614,1328.1l4.5-5.2l2.9,2.6l9.3-10.7l-36.6-31.7l-9.3,10.7l7.9,6.9c3.3-4.2,5.9-7.6,5.9-7.6
					s1.8,0.7,1.9-0.9l6.5,5.7c-0.8,0.8-4.2,4.3-8.1,8.3l12.8,11.1l-12.8-11.1c-6.2,6.3-13.6,13.8-13.6,13.8l-29.4,22l-0.6,22.5
					l-246.9,277.7c0,0-12.1,6.5-14.5,8.5c-2.4,2-8.4,13.2-11.1,16.8c-2.7,3.6-15.3,11.1-19,12.2c-3.7,1.1-11.9,1-13.5,3.1
					c-1.6,2.1-20.4,23.5-21.7,25.3c-1.3,1.7-1,8.2-0.5,10c0.5,1.8,5.3,5.7,2.4,9.5c-1.9,2.6-4.8,5.2-6.4,6.6l27.6,23.9l5.2-6
					l5.1,4.4l29.8-34.4l0-11.2l7.4-9.4l-2.6-2.2l16.4-18.9l4.7,4.1l8.9-10.3l-10.2-8.8l7.6,6.6l4.8-5.6l-4.7-4.1l252.1-291.1
					l6.1,5.9l-15.6,77.4l-89.1,105.5l15.4,38.1l99.6-128.7l26.7-74.6L614,1328.1z"/>
			</g>
			<path class="st0" d="M711.4,1268.1l36-78.6l-15.3-13.3L635,1288.4l37,32.1l-9.8,21.6l63.8,55.3l43-82.3L711.4,1268.1z
				 M666.6,1341.2l10.5-22.7l-36.8-31.9l92.4-106.7l2.1,1.8l-91,104.4l37.1,31.8l-11,23.2l53.7,47l1.1,3.5L666.6,1341.2z"/>
			<path class="st0" d="M711.3,1158.2l-72.6,46.9l-54.7-50.4l-75.3,54.3l63.8,55.3l20-12.8l37,32.1l97.1-112.1L711.3,1158.2z
				 M526.6,1216.9l0.2-15.4l54.3-37.8l-51.8,39.5l-0.2,12.5l43,37.1l2.3,5.5L526.6,1216.9z M592.9,1247.2l-11.8,7.4l-0.3-1.7
				l12.3-8.4l15,13l-0.1,2.8L592.9,1247.2z M639,1211.8l-53.2-48l0.8-2.9l52.5,47.9l71.8-47.9l-1.3,3.2L639,1211.8z"/>
			<path class="st0" d="M1002.8,1000.1l-56.3,65l-6.5,68.5l-72.5,81.5l-88.4-17.8l-35.5,41l42.6,61.6l-33.7,95.4l-84.4,101.9
				l153.3,10.7l300.7-377.7L1002.8,1000.1z M759.5,1399.8l34.4-100.2l-42.8-59.5l31.9-36.8l4.2,0.3l-31.6,36.5l43.4,60.1
				l-35.4,101.6l-11.7,13.5c0,0-9.7,4.9-10.4,4.9L759.5,1399.8z M818.4,1501.3l-139.4-8.5l2.4-1.3l135.5,7.1l286.9-368.9l-102-109.4
				l-0.9-8.8l108.1,118.2L818.4,1501.3z"/>
			<path class="st0" d="M1458.4,283.2l-8.3,2.6c-1.7-0.2-3,0.1-3.9,1.2l-2.4,0.7c-0.1,0-0.3-0.1-0.4-0.1c-2.7-1.2-5.1-1.9-5.7,0.4
				c-1.7,1-3.3,2-5,3.1l-7.7,2.4c-1.8,0.3-3.6,0.6-5.4,0.9c-7-1.8-8.1,4.2-13.6,4.4l-0.1,0c-3.2-0.3-7-1.6-7,2.3
				c-0.1,0.2-0.3,0.4-0.4,0.6l-3.5,1.1c-11.5-4-15.7,2.4-21.6,6.3c-0.5,0.2-0.9,0.5-1.4,0.7l-25.2,7.8c-0.6-0.1-1.3-0.2-1.9-0.3
				c0,0.3-0.1,0.6-0.1,0.9l-38.6,11.9l-34.1-6.9c-4.8-2.2-9.4-4-12.6-2.6l-49.2-10L684.7,906.2c3.9,0,7.8,0,11.7,0
				c-3.5,3.8-6.8,7.8-9,12.7l-10.9,12.6l14.6,2.1l2.2-2.3c1.8,1.3,3.7,2.4,5.7,3.1c0.8,0.6,1.7,1.3,2.5,1.9c0.8,0.5,1.6,1.1,2.3,1.6
				c1.7,0.6,3.1,0.8,4.4,0.5c7.2-5.2,11.7-12.7,17.2-19.4c0.7-1.2,1.7-2.3,2.7-3.3c2.8,0.3,5.4,0,8.5,1.8c1,0.2,1.8,0.1,2.4-0.2
				c0.4,0.3,0.8,0.6,1.1,0.9c1.1,2.5,2.8,4.1,5.7,4.1c0.3-0.4,0.8-0.6,1.3-0.7c4.3-5.1,8.7-10.2,13-15.3c0.8,0,1.5,0,2.3,0
				L746,925.2l65.3,21.8c5.5,0,10.8,0.2,16.1,0.6c2.4-0.5,4.8-0.8,7.3-1c3.5-0.4,6.8-0.4,10.2-0.1l33.5-38.3c0,0,0,0,0,0l12.8-14.7
				l-12.8,14.8c4.1,5.1,8.1,10.4,11.9,15.8l-3.5,4h0l-3.8,4.4c2.6,1.9,4.9,4.3,7.1,6.9c2.3,2.8,4.3,5.7,6.2,8.7
				c4.5,4.1,8.8,8.6,12.8,13.3l-0.8,0.9c0.3,0.3,0.6,0.6,0.9,0.9c1.6,1.7,3.2,3.4,4.7,5.1l0.4-0.4c3.5,4.6,6.6,9.4,9.4,14.4
				c0.9,2,1.8,4,2.6,6c0.3,0.3,0.6,0.5,0.9,0.8c0.1,0.3,0.2,0.5,0.3,0.8c2.1,3.8,4.2,7.6,6.4,11.2l4-4.6c0.6,0.5,1.2,1,1.7,1.5
				c9,9,16.1,19.4,21.9,30.5c8.1,0.9,15.9,5.2,20.6,12c3.4,5,6.6,10.1,9.7,15.2c3,1.9,5.7,4.4,7.8,7.3c9.2,12.5,18.3,24.9,26.7,37.9
				l-5.8,6.7l-16.7-18.3l0.2-0.3l-13.2-14.8l-74.5,91l39.8,43.7L813,1389.1l-70.1,0.7l-3.5,4.4l9.9,3.8l-7.2,0.4l109.1,35.7
				l161.2-218.6l-37.9-38.3l43.6-50.4l27.5,34.8l9.6,4.4l20.5-23.6l-3.8-11.1l-25.5-36.9l5.4-6.3l27.4,34.6l7.7,6.6l0.1-0.2l0.7,0.9
				l0,0l-0.7-0.9l23.8-27.5l-5-9.8l-25.5-36.8l81.6-94.2l-2.7-5.6l-21.6-47l47.6-54.9l26.7,51.8l37.6-45.3l-27.2-50.7l42.5-49
				l27.3,50.3l5.9-6.9l0.1,0.2l37.1-42.8l-28.1-48.2l44.8-53.1c0.3,0.2,0.6,0.4,0.9,0.5c1.4,2.8,2.7,5.6,4.1,8.5
				c1.9,2.9,3.8,5.8,5.7,8.7c0,0,0,0,0,0c2.3,7.6,7.5,14.7,13.7,21.8c0.2-0.2,0.4-0.4,0.6-0.7l4.5,9l10.9-12.6
				c0.5-0.2,1-0.4,1.6-0.5c3.3-0.7,5.5-3.2,7.7-5.4c0.4-0.4,0.8-0.9,1.2-1.3l-2.4-2.1l13.3-15.3l-25.7-50.9l48.2-55.7
				c0.3,0.6,0.6,1.3,0.8,1.9c0,0,0,0,0,0c0,0,0,0,0,0c0.1,1.3,0.2,2.6,0.4,3.9c-0.2-0.2-0.5-0.1-0.9,0.3c-0.4,0.3-0.2,0.9,0.4,1.8
				c0.7,0.7,1.4,1.5,2,2.3c2.6,8.6,5.2,17.3,17.2,22.9c0.5-0.7,1-1.5,1.5-2.2l4.9,9.2l114.8-161.4L1458.4,283.2z M882.9,767.4
				L1245,349.1l95.5,30.1l-350.2,401L882.9,767.4z M999.8,921.3l-52.5-62.6L1381,360.1l93.7,16.7L999.8,921.3z"/>
			<polygon class="st0" points="865.6,759.1 1115.4,1101.7 1091.4,1129.4 841.1,787.5 			"/>
			<polygon class="st0" points="831.2,798.9 1081,1141.4 1057,1169.1 806.7,827.2 			"/>
			<path class="st0" d="M833.3,793.6l-35.4,40.9L716.7,779l-330.9,351.5l32.5,150.3l88.8-98l89.6-46.9l67.1,33.4l35.5-41l-30.2-85
				l70.3-83.4l14.5-3.5l-0.6,0.7l33.7-4.5c6.5-3.2,13.5-5.3,20-5.4c6.1-0.1,12,0,17.8,0.4l35.3-4.7l118.1-136.6L833.3,793.6z
				 M428.4,1264.2l-33.7-129.5l326.9-345.9l15.6,13.5L414.8,1143C414.8,1143,450.9,1238.1,428.4,1264.2z M593.8,1127.2l-88.8,48.6
				l-0.3-4.6l89.4-47.3l51.6,28.8l5,5.4L593.8,1127.2z M737,949.7l-78.4,94.9l10.2,24.1l-9.6-8.6l-8-15.7l82.2-98.8l107-12.6
				l3.6,3.1L737,949.7z M851.4,810.9l-38.3,39.4l-8.5-2.4L787.7,869l-36.5-13.4l-11-14l48,19l16.9-21.3l6.1,3.6l35.7-41.2
				l109.7,11.5l-12.3,7.4L851.4,810.9z"/>
		</g>
		<polygon class="st1" points="1070.8,1142.5 1055.3,1160.4 813.2,830.4 832.9,807.7 822.3,835.8 1053.3,1149.6 		"/>
		<polygon class="st1" points="1105.9,1102 1109.5,1097.9 867.9,767.2 864.9,770.7 		"/>
		<g>
			<path d="M568.6,1319.6l-6.8-5.9l-27.2,31.4l6.8,5.9l-247,285.2l-2.6-2.2l-4.8,5.6l-7.1,8.2l4.3,3.7l-15.6,18l-4.3-3.7l-9.6,11.1
				c1.2,0,2.5,0,3.6-0.3c3.5-0.8,13.1-8.1,15.9-10.2c2.8-2.1,12.4-12.9,14.5-17.5c2.1-4.5,12.8-9.9,16-12.2
				c3.2-2.3,153.4-177.3,155.1-178.4c1.7-1.1,87.2-99.4,88.2-100.1c0.9-0.7,0.6-14.5,0.5-16.9c-0.2-2.4,30.1-24.4,32.4-26.1
				c1.4-1,7.3-8.5,12-14.4l-4.5-3.9L568.6,1319.6z"/>
			<path d="M223.9,1707.8c3.9-5.7,22.8-26.7,24.8-29.2c0,0,0.1-0.1,0.1-0.1l-8.4,1.1l-25.3,29.2l4.7,4.1l-8.6,9.9l7.1,6.2
				c0.9-3,3.8-7.2,4.4-9C223.7,1717,220,1713.5,223.9,1707.8z"/>
			<path d="M618.5,1323l2.9,2.6l9.3-10.7l-36.6-31.7l-9.3,10.7l7.9,6.9c3.3-4.2,5.9-7.6,5.9-7.6s1.8,0.7,1.9-0.9l6.5,5.7
				c-0.8,0.8-4.2,4.3-8.1,8.3l12.8,11.1l-12.8-11.1c-6.2,6.3-13.6,13.8-13.6,13.8l-29.4,22l-0.6,22.5l-246.9,277.7
				c0,0-12.1,6.5-14.5,8.5c-2.4,2-8.4,13.2-11.1,16.8c-2.7,3.6-15.3,11.1-19,12.2c-3.7,1.1-11.9,1-13.5,3.1
				c-1.6,2.1-20.4,23.5-21.7,25.3c-1.3,1.7-1,8.2-0.5,10c0.5,1.8,5.3,5.7,2.4,9.5c-1.9,2.6-4.8,5.2-6.4,6.6l27.6,23.9l5.2-6l5.1,4.4
				l29.8-34.4l0-11.2l7.4-9.4l-2.6-2.2l16.4-18.9l4.7,4.1l8.9-10.3l-10.2-8.8l7.6,6.6l4.8-5.6l-4.7-4.1l252.1-291.1l6.1,5.9
				l-15.6,77.4l-89.1,105.5l15.4,38.1l99.6-128.7l26.7-74.6l-5.7-66.6L618.5,1323z"/>
			<path d="M726.1,1397.4l43-82.3l-57.7-46.9l36-78.6l-15.3-13.3L635,1288.4l37,32.1l-9.8,21.6L726.1,1397.4z M640.3,1286.6
				l92.4-106.7l2.1,1.8l-91,104.4l37.1,31.8l-11,23.2l53.7,47l1.1,3.5l-58.2-50.4l10.5-22.7L640.3,1286.6z"/>
			<path d="M583.9,1154.7l-75.3,54.3l63.8,55.3l20-12.8l37,32.1l97.1-112.1l-15.3-13.3l-72.6,46.9L583.9,1154.7z M526.6,1216.9
				l0.2-15.4l54.3-37.8l-51.8,39.5l-0.2,12.5l43,37.1l2.3,5.5L526.6,1216.9z M592.9,1247.2l-11.8,7.4l-0.3-1.7l12.3-8.4l15,13
				l-0.1,2.8L592.9,1247.2z M710.9,1161l-1.3,3.2l-70.6,47.7l-53.2-48l0.8-2.9l52.5,47.9L710.9,1161z"/>
			<path d="M899.6,1132.6c35.9-41.5,31.7-104-9.4-139.6c-41.1-35.6-103.6-30.9-139.6,10.7s-31.7,104,9.4,139.6
				C801.2,1178.9,863.7,1174.1,899.6,1132.6z M778.5,1027.8c22.5-26,61.6-29,87.4-6.7c25.8,22.3,28.4,61.4,5.9,87.4
				c-22.5,26-61.6,29-87.4,6.7C758.6,1092.9,756,1053.7,778.5,1027.8z"/>
			<path d="M1458.4,283.2l-8.3,2.6c-1.7-0.2-3,0.1-3.9,1.2l-2.4,0.7c-0.1,0-0.3-0.1-0.4-0.1c-2.7-1.2-5.1-1.9-5.7,0.4
				c-1.7,1-3.3,2-5,3.1l-7.7,2.4c-1.8,0.3-3.6,0.6-5.4,0.9c-7-1.8-8.1,4.2-13.6,4.4l-0.1,0c-3.2-0.3-7-1.6-7,2.3
				c-0.1,0.2-0.3,0.4-0.4,0.6l-3.5,1.1c-11.5-4-15.7,2.4-21.6,6.3c-0.5,0.2-0.9,0.5-1.4,0.7l-25.2,7.8c-0.6-0.1-1.3-0.2-1.9-0.3
				c0,0.3-0.1,0.6-0.1,0.9l-38.6,11.9l-34.1-6.9c-4.8-2.2-9.4-4-12.6-2.6l-49.2-10L766.7,813.2L716.7,779l-330.9,351.5l32.5,150.3
				l88.8-98l89.6-46.9l67.1,33.4l35.5-41l-30.2-85l70.3-83.4l14.5-3.5l-0.6,0.7l33.7-4.5c6.5-3.2,13.5-5.3,20-5.4c1.4,0,2.9,0,4.3,0
				l0,0c1.2,0,2.4,0,3.6,0c0.2,0,0.4,0,0.6,0c1.1,0,2.2,0,3.2,0.1c0.3,0,0.6,0,0.9,0c1,0,2.1,0.1,3.1,0.1c0.3,0,0.7,0,1,0.1
				c1.2,0.1,2.5,0.2,3.7,0.2c2.4-0.5,4.8-0.8,7.3-1c3.5-0.4,6.8-0.4,10.2-0.1l1.7-2l13.5-1.8l16.9-19.5l6.4,8.7l-0.4,0.4
				c0.5,0.4,1.1,0.8,1.6,1.3l80.5,110l-18.6,21.4l-6.5,68.5l-72.5,81.5l-88.4-17.8l-35.5,41l42.6,61.6l-31.7,89.8l-11.6,0.1
				l-3.5,4.4l9.9,3.8l-7.2,0.4l6.3,2.1l-80.2,96.9l153.3,10.7l300.7-377.7l-16.3-17.7l9.4-10.9l-34.4-47.2l81.1-93.6l-2.7-5.6
				l-21.6-47l47.6-54.9l26.7,51.8l37.6-45.3l-27.2-50.7l42.5-49l27.3,50.3l5.9-6.9l0.1,0.2l37.1-42.8l-28.1-48.2l44.8-53.1
				c0.3,0.2,0.6,0.4,0.9,0.5c1.4,2.8,2.7,5.6,4.1,8.5c1.9,2.9,3.8,5.8,5.7,8.7c0,0,0,0,0,0c2.3,7.6,7.5,14.7,13.7,21.8
				c0.2-0.2,0.4-0.4,0.6-0.7l4.5,9l10.9-12.6c0.5-0.2,1-0.4,1.6-0.5c3.3-0.7,5.5-3.2,7.7-5.4c0.4-0.4,0.8-0.9,1.2-1.3l-2.4-2.1
				l13.3-15.3l-25.7-50.9l48.2-55.7c0.3,0.6,0.6,1.3,0.8,1.9c0,0,0,0,0,0c0,0,0,0,0,0c0.1,1.3,0.2,2.6,0.4,3.9
				c-0.2-0.2-0.5-0.1-0.9,0.3c-0.4,0.3-0.2,0.9,0.4,1.8c0.7,0.7,1.4,1.5,2,2.3c2.6,8.6,5.2,17.3,17.2,22.9c0.5-0.7,1-1.5,1.5-2.2
				l4.9,9.2l114.8-161.4L1458.4,283.2z M1245,349.1l95.5,30.1l-350.2,401l-107.5-12.8L1245,349.1z M741.2,842l-0.4,0.4l-0.7-0.9
				L741.2,842z M428.4,1264.2l-33.7-129.5l326.9-345.9l15.6,13.5L414.8,1143C414.8,1143,450.9,1238.1,428.4,1264.2z M593.8,1127.2
				l-88.8,48.6l-0.3-4.6l89.4-47.3l51.6,28.8l5,5.4L593.8,1127.2z M737,949.7l-78.4,94.9l10.2,24.1l-9.6-8.6l-8-15.7l82.2-98.8
				l54.3-6.4l8.8,2.9L737,949.7z M793.9,1299.6l-42.8-59.5l31.9-36.8l4.2,0.3l-31.6,36.5l43.4,60.1l-31.2,89.5l-4.9,0L793.9,1299.6z
				 M756.6,1403l4.6,1.5l-9.2,10.6c0,0-9.7,4.9-10.4,4.9L756.6,1403z M1108.9,1129.6l-290.6,371.7l-139.4-8.5l2.4-1.3l135.5,7.1
				l286.9-368.9l-6.5-7l2.6-3L1108.9,1129.6z M999.8,921.3l-52.5-62.6L1381,360.1l93.7,16.7L999.8,921.3z"/>
		</g>
		<path class="st0" d="M568.6,1319.6l-6.8-5.9l-27.2,31.4l6.8,5.9l-247,285.2l-2.6-2.2l-4.8,5.6l-7.1,8.2l4.3,3.7l-15.6,18l-4.3-3.7
			l-9.6,11.1c1.2,0,2.5,0,3.6-0.3c3.5-0.8,13.1-8.1,15.9-10.2c2.8-2.1,12.4-12.9,14.5-17.5c2.1-4.5,12.8-9.9,16-12.2
			c3.2-2.3,153.4-177.3,155.1-178.4c1.7-1.1,87.2-99.4,88.2-100.1c0.9-0.7,0.6-14.5,0.5-16.9c-0.2-2.4,30.1-24.4,32.4-26.1
			c1.4-1,7.3-8.5,12-14.4l-4.5-3.9L568.6,1319.6z"/>
		<path class="st0" d="M223.9,1707.8c3.9-5.7,22.8-26.7,24.8-29.2c0,0,0.1-0.1,0.1-0.1l-8.4,1.1l-25.3,29.2l4.7,4.1l-8.6,9.9
			l7.1,6.2c0.9-3,3.8-7.2,4.4-9C223.7,1717,220,1713.5,223.9,1707.8z"/>
		<path d="M618.5,1323l2.9,2.6l9.3-10.7l-36.6-31.7l-9.3,10.7l7.9,6.9c3.3-4.2,5.9-7.6,5.9-7.6s1.8,0.7,1.9-0.9l6.5,5.7
			c-0.8,0.8-4.2,4.3-8.1,8.3l12.8,11.1l-12.8-11.1c-6.2,6.3-13.6,13.8-13.6,13.8l-29.4,22l-0.6,22.5l-246.9,277.7
			c0,0-12.1,6.5-14.5,8.5c-2.4,2-8.4,13.2-11.1,16.8c-2.7,3.6-15.3,11.1-19,12.2c-3.7,1.1-11.9,1-13.5,3.1
			c-1.6,2.1-20.4,23.5-21.7,25.3c-1.3,1.7-1,8.2-0.5,10c0.5,1.8,5.3,5.7,2.4,9.5c-1.9,2.6-4.8,5.2-6.4,6.6l27.6,23.9l5.2-6l5.1,4.4
			l29.8-34.4l0-11.2l7.4-9.4l-2.6-2.2l16.4-18.9l4.7,4.1l8.9-10.3l-10.2-8.8l7.6,6.6l4.8-5.6l-4.7-4.1l252.1-291.1l6.1,5.9
			l-15.6,77.4l-89.1,105.5l15.4,38.1l99.6-128.7l26.7-74.6l-5.7-66.6L618.5,1323z"/>
		<path d="M726.1,1397.4l43-82.3l-57.7-46.9l36-78.6l-15.3-13.3L635,1288.4l37,32.1l-9.8,21.6L726.1,1397.4z M640.3,1286.6
			l92.4-106.7l2.1,1.8l-91,104.4l37.1,31.8l-11,23.2l53.7,47l1.1,3.5l-58.2-50.4l10.5-22.7L640.3,1286.6z"/>
		<path d="M583.9,1154.7l-75.3,54.3l63.8,55.3l20-12.8l37,32.1l97.1-112.1l-15.3-13.3l-72.6,46.9L583.9,1154.7z M526.6,1216.9
			l0.2-15.4l54.3-37.8l-51.8,39.5l-0.2,12.5l43,37.1l2.3,5.5L526.6,1216.9z M592.9,1247.2l-11.8,7.4l-0.3-1.7l12.3-8.4l15,13
			l-0.1,2.8L592.9,1247.2z M710.9,1161l-1.3,3.2l-70.6,47.7l-53.2-48l0.8-2.9l52.5,47.9L710.9,1161z"/>
		<g class="st2">
			<polygon class="st1" points="1116.3,787.8 1236.9,792.4 1264.9,760 1283.4,794.1 1305.7,795 1335.3,760.8 1323.7,740.9 
				1157,741.1 			"/>
			<polygon class="st1" points="1024.4,741.3 990.4,780.2 882.9,767.4 905.5,741.4 830,741.5 799.7,775.7 1012.5,783.8 
				1049.5,741.2 			"/>
			<polygon class="st1" points="1233.3,502.1 1084.6,672.3 1110.1,671.6 1258.6,500.8 			"/>
			<polygon class="st1" points="885.8,678.2 962.1,676 1107,508.6 1032,512.4 			"/>
			<path class="st1" d="M1436.3,563.5c0.3,0.6,0.6,1.3,0.8,1.9c0,0,0,0,0,0c0,0,0,0,0,0c0.1,1.3,0.2,2.6,0.4,3.9
				c-0.2-0.2-0.5-0.1-0.9,0.3c-0.4,0.3-0.2,0.9,0.4,1.8c0.7,0.7,1.4,1.5,2,2.3c2.6,8.6,5.2,17.3,17.2,22.9c0.5-0.7,1-1.5,1.5-2.2
				l4.9,9.2l83.7-117.7l-174.8,9l-151.2,173.4l127.4-3.8l4.2-5c0.3,0.2,0.6,0.4,0.9,0.5c0.7,1.4,1.4,2.8,2,4.2l55.1-1.6l-21.9-43.5
				L1436.3,563.5z"/>
		</g>
		<g class="st3">
			<polygon class="st1" points="1043.9,1006 1110.6,928.4 1076.7,882.8 1166.3,779.3 1178.6,799.8 1097.3,893.6 1128,943.3 
				1057.5,1026.5 			"/>
			<polygon class="st1" points="1212.8,849.7 1218.8,842.7 1180.4,772.9 1250.1,693.1 1263.4,712.5 1196.9,789.2 1226.8,849.7 
				1218.2,859.7 			"/>
		</g>
		<g>
			<g>
				<path class="st1" d="M1787.8,958.1c1.9,0,1.9-3,0-3C1785.9,955.1,1785.9,958.1,1787.8,958.1L1787.8,958.1z"/>
			</g>
		</g>
	</g>
	<path d="M1538.1,863.2c0,0-17.3-38.4-34.5-59.5c-17.3-21.1-44.1-38.4-72.9-13.4S1315.5,893.9,1296.4,915
		c-19.2,21.1-26.9,34.5-13.4,63.3s46,101.7,51.8,153.5c5.8,51.8,1.9,117-48,159.2c-49.9,42.2-90.2,32.6-111.3,32.6
		s-32.6-1.9-40.3,19.2c-7.7,21.1,38.4,38.4,94,57.5c55.6,19.2,151.5,28.8,228.3,24.9c76.7-3.8,124.7-49.9,140-78.6
		c15.3-28.8,44.1-86.3,32.6-203.3C1618.6,1026.2,1559.2,901.6,1538.1,863.2z"/>
	<path d="M1023.2,403c8-17.4,19.2-26.9,17.3-48c-1.9-21.1-11.5-32.6-32.6-42.2c-21.1-9.6-84.4-40.3-136.2-49.9
		c-51.8-9.6-136.2-21.1-193.7-15.3c-57.5,5.8-140,24.9-172.6,57.5s-49.9,55.6-42.2,72.9s24.9,9.6,53.7,9.6
		c28.8,0,155.4,24.9,205.2,44.1c49.9,19.2,130.4,61.4,153.5,78.6c23,17.3,38.4,26.9,48,24.9c9.6-1.9,21.1-7.7,40.3-38.4
		C982.9,466.3,1011.7,427.9,1023.2,403z"/>
</g>
</svg>
