<?xml version="1.0" encoding="utf-8"?>
<!-- Generator: Adobe Illustrator 25.2.1, SVG Export Plug-In . SVG Version: 6.00 Build 0)  -->
<svg version="1.1" id="Layer_2" xmlns="http://www.w3.org/2000/svg" xmlns:xlink="http://www.w3.org/1999/xlink" x="0px" y="0px"
	 viewBox="0 0 84.7 96.9" style="enable-background:new 0 0 84.7 96.9;" xml:space="preserve">
<style type="text/css">
	.st0{fill:#4D8BCA;}
	.st1{fill:#1A3D61;}
	.st2{fill:#FFFFFF;}
</style>
<path class="st0" d="M84.7,37.6V25.2L42.7,0L0,24.6v11.8l3.6,3.4L3.2,57.6L0,60.9v12l42.4,24l42.4-23.8V61.2l-3.8-3.8l0.4-17.6
	L84.7,37.6z M77.3,69.6L42.4,88.9L6.5,69.1L6.3,27.3L42.4,7.4l34.9,19.8V69.6z"/>
<polygon class="st1" points="9.3,29.8 42.4,12.8 74.2,29.8 74.2,66.4 42.4,85.5 9.3,65.8 "/>
<polygon class="st2" points="11.9,30.1 42.4,15.1 72.1,31.8 42.4,16.6 "/>
</svg>
