<?xml version="1.0" encoding="utf-8"?>
<!-- Generator: Adobe Illustrator 25.2.1, SVG Export Plug-In . SVG Version: 6.00 Build 0)  -->
<svg version="1.1" id="Layer_1" xmlns="http://www.w3.org/2000/svg" xmlns:xlink="http://www.w3.org/1999/xlink" x="0px" y="0px"
	 viewBox="0 0 2000 2000" style="enable-background:new 0 0 2000 2000;" xml:space="preserve">
<style type="text/css">
	.st0{fill:#3D0354;}
	.st1{fill:#FFFFFF;}
	.st2{opacity:0.5;}
	.st3{fill:#878787;}
	.st4{fill:#4D4D4D;}
	.st5{fill:#757575;}
</style>
<g>
	<g>
		<g>
			<g>
				<path class="st0" d="M1019.9,72.8c-1.1,1.6-2.4,8-2.7,9.9c-0.4,1.9-0.3,9.8,0.5,12.3c0.8,2.6-1.6,8.6-2.1,10.7
					c-0.5,2.1,2.2,127.4,1.9,128.5c-0.3,1.1,0.8,71.9,0.6,72.5c-0.1,0.6,5,6.1,5.9,7c0.9,0.9-3.3,20.8-3.6,22.3
					c-0.2,0.9,0.1,6.1,0.4,10.2l3.3-0.1l-0.3-16.4l4.9-0.1l-0.4-22.5l-4.9,0.1l-3.5-205.1l1.8,0l-0.1-4l-0.1-5.9l-3.1,0.1l-0.2-13
					l3.1-0.1l-0.1-8C1020.7,71.8,1020.2,72.3,1019.9,72.8z"/>
				<path class="st0" d="M1017.1,37.1c0.7,1.5,1.1,4.3,1.5,5.3c0.6,1.5,3.4,1.6,3.9,5.3c0.5,3.7,0.4,19.1,0.6,20.8c0,0,0,0.1,0,0.1
					l3-3.5l-0.4-21l-3.4,0.1l-0.1-7.1L1017.1,37.1z"/>
				<path class="st0" d="M1002.2,342.9l0.1,3.7l-2.1,0l0.1,7.7l26.3-0.4l-0.1-7.7l-5.7,0.1c0.2,2.9,0.4,5.2,0.4,5.2s-1,0.4-0.5,1.1
					l-4.7,0.1c0-0.6,0.1-3.3,0.3-6.3l-9.2,0.2l9.2-0.2c0.2-4.8,0.5-10.5,0.5-10.5l3.9-19.6l-7.9-9.3l-0.8-202c0,0,2.6-7,2.8-8.7
					c0.2-1.7-1.4-8.4-1.6-10.8c-0.2-2.4,2.2-10.1,3.3-11.8c1.1-1.8,4.5-4.7,4.4-6.1c-0.1-1.4-0.3-16.9-0.4-18.1
					c-0.1-1.2-2.6-3.7-3.4-4.2c-0.9-0.6-4.2-0.3-4.4-3c-0.1-1.7,0-3.8,0.2-5l-19.9,0.3l0.1,4.3l-3.7,0.1l0.4,24.7l4.1,4.6l0.4,6.5
					l1.8,0l0.2,13.6l-3.4,0.1l0.1,7.4l7.3-0.1l-5.5,0.1l0.1,4l3.4-0.1l3.5,209.3l-4.6-0.2l-21.7-37l-2.2-75l-20.1-9.9l6.4,88.2
					l16.3,39.9L1002.2,342.9z"/>
			</g>
			<path class="st0" d="M984.6,402.5l13.9,44.9l11-0.2l-1.4-80.6l-26.6,0.4l-3.9-12.3l-45.9,0.8l12.5,48.9L984.6,402.5z
				 M976.2,356.7l4,13l26.5-0.4l1.3,76.7l-1.5,0l-1-75.3l-26.6,0.6l-3.9-13.4l-38.8,0.4l-1.7-1L976.2,356.7z"/>
			<path class="st0" d="M1024.5,446.9l12.4-45.3l40.4,0.6l10.8-49.3l-45.9,0.8l-3.5,12.4l-26.6,0.4l1.4,80.6L1024.5,446.9z
				 M1078,356.2l5.5,6.3l-8.3,35l6.7-34.8l-4.5-5.1l-30.9,0.6l-2.9-1.4L1078,356.2z M1040.2,368l2.1-7.3l0.8,0.6l-2,7.9l-10.8,0.2
				l-1-1.2L1040.2,368z M1034.3,399l38.9,0.1l0.7,1.5l-38.6-0.4l-11.7,45.4l-0.6-1.8L1034.3,399z"/>
			<path class="st0" d="M963.8,616.7l-0.8-46.7l-22.2-30.1l-0.2-59.3l42.3-24.9l-0.5-29.4l-39.6-9.5l-21-50.8l-2.8-71.9l-66,51.3
				l15.3,262L963.8,616.7z M917.4,366.6l22.4,53l38.9,8.6l0.4,26.5l-1.8,1.4l-0.4-26.2l-39.4-8.6L915,367.4l-0.2-9.7
				c0,0,2.2-5.5,2.4-5.8L917.4,366.6z M856.7,346.9l59.5-47.1l-0.5,1.4l-57.4,46.3L876,600.9l81,7.3l3.5,3.2l-86.6-8.6L856.7,346.9z
				"/>
			<path class="st0" d="M913.6,731.1l1.1,27.6c9.1-5.9,18.6-11.3,28.1-16.5L913.6,731.1z"/>
			<path class="st0" d="M1037.6,653.8l0.7,46.9c4.2,2.1,7.9,5.3,10.5,9.2l-0.1-8.7l48.1-33.8l1.2,70c9.6,5.4,19.3,10.6,28.7,16.2
				c0.6,0.3,1.2,0.7,1.7,1l-1.7-215.3c-1.6,1.4-3.2,2.8-4.7,4.2c0.1-2.8-0.1-5.6-1-8.4l-0.2-9l-6.7,4.5l-0.1,1.8
				c-1.2,0.1-2.4,0.4-3.4,0.8c-0.6,0-1.1,0.1-1.7,0.1c-0.5,0.1-1,0.1-1.5,0.2c-0.9,0.3-1.6,0.8-1.9,1.4c-1,4.7-0.1,9.4,0.1,14.1
				c0.1,0.8,0.1,1.5,0.1,2.3c-1.2,0.9-2.2,2-4.1,2.3c-0.5,0.3-0.8,0.6-0.9,0.9c-0.3,0-0.5,0-0.8,0.1c-1.3-0.6-2.6-0.7-3.8,0.4
				c0,0.3-0.1,0.5-0.3,0.8c0.1,3.6,0.2,7.3,0.3,10.9c-0.3,0.3-0.6,0.5-0.9,0.8l-0.2-13.7l-34.3,14.9c-2.2,2-4.4,3.9-6.7,5.6
				c-0.8,1.1-1.6,2.1-2.6,3c-1.2,1.4-2.6,2.7-4.1,3.7l0.3,27.7c0,0,0,0,0,0l0.1,10.6l-0.2-10.6c-3.5-0.6-7-1.3-10.5-2.1l0-2.9v0
				l0-3.1c-1.7,0.2-3.5,0-5.4-0.2c-1.9-0.3-3.8-0.7-5.7-1.3c-3.3,0-6.7-0.3-10-0.7l0-0.6c-0.2,0-0.5,0-0.7,0
				c-1.2-0.1-2.5-0.2-3.8-0.4l0,0.3c-3.1-0.6-6.1-1.4-9-2.4c-1.1-0.5-2.2-1-3.2-1.5c-0.2,0-0.4,0-0.6,0c-0.1-0.1-0.3-0.1-0.4-0.2
				c-2.2-0.8-4.4-1.6-6.7-2.2l0.1,3.3c-0.4,0-0.8,0-1.3,0c-6.9-0.4-13.6-2-19.9-4.4c-3.6,2.6-8.4,3.7-12.7,2.6
				c-3.2-0.8-6.3-1.7-9.4-2.6c-1.9,0.3-3.9,0.3-5.8-0.1c-8.2-1.7-16.5-3.5-24.6-5.6l-0.1-4.8l13.4,1.3l0,0.2l10.7,1.2l-2.9-63.9
				l-32-3.3l-7.4-124.9l28.1-25.7l-0.2-3l-5.4,2.1l2.8-2.8l-57.1,25.1l14,147l29.2,1.8l0.6,36.2l-23.8-4.1l-5.5,1.7l0.3,17l5.6,3.1
				l23.7,5.7l0.1,4.5l-23.7-4.1l-5.5,0.1l0,0.1l-0.6-0.1l0,0l0.6,0.1l0.3,19.8l5.5,2.2l23.7,5.7l1.1,67.8l3.1,1.3l25.8,11.2
				l0.7,39.1c17.1-9.4,34.5-18.2,51.3-27.9l-0.9-66.5L1037.6,653.8z"/>
			<path class="st0" d="M1119.2,833.7c-6.6-5.4-13.2-10.7-19.9-16l2.6,150.4l-49.6,22.4l-2.7-209.8c-3.4-2.3-6.8-4.6-10.3-6.9
				l3.6,239.1l-44,27.2l-3.6-269.6c-17,9.1-34.2,18-50.6,28.1l0.2,10.3l-10.4-3.7c-2.7,1.8-5.4,3.7-8,5.6c-3.3,2.4-7,3.5-10.7,3.6
				l0.3,19.7l28.9,9.3l1.1,37.7c-0.2,0-0.4,0.1-0.6,0.1c-1.6-0.6-3.2-1.3-4.7-1.9c-1.8-0.5-3.6-1-5.5-1.5c0,0,0,0,0,0
				c-3.7-2.2-8.4-3.3-13.4-3.8l0,0.5l-5.1-2l0.2,9.1c-0.2,0.3-0.3,0.5-0.5,0.8c-1.1,1.5-1.1,3.3-1.1,5c0,0.3,0,0.6,0,1l1.8,0l0.2,11
				l28.9,11.3l0.7,40.1c-0.3-0.2-0.7-0.3-1-0.5c0,0,0,0,0,0c-0.5-0.5-1-1-1.6-1.5c0.2,0,0.2-0.1,0.3-0.4c0-0.3-0.2-0.5-0.8-0.6
				c-0.6,0-1.1-0.1-1.7-0.2c-4.2-2.5-8.4-5.1-15.3-3c0.1,0.5,0.1,1,0.2,1.5l-5.3-2l12.1,107l106,21.2l2.4-4.1
				c0.8-0.5,1.2-1.2,1.2-1.9l0.7-1.2c0.1,0,0.1-0.1,0.2-0.1c1.5-0.5,2.8-1.1,2.2-2.2c0.3-1,0.6-2,0.9-3l2.3-3.8
				c0.6-0.8,1.3-1.6,1.9-2.3c3.5-1.8,1.8-4.6,3.9-6.7l0,0c1.4-1,3.4-1.9,2-3.4c0-0.1,0-0.2,0-0.4l1-1.7c6.1-2.6,5.5-6.6,6.4-10.4
				c0.1-0.3,0.2-0.5,0.3-0.8l7.4-12.3c0.3-0.2,0.6-0.4,0.9-0.6c-0.1-0.1-0.2-0.3-0.3-0.4l11.3-18.8l16.3-9.6
				c2.7-0.9,5.3-1.8,6.1-3.5l23.5-13.8l-1-131.5C1125.5,838.4,1122.4,836.3,1119.2,833.7z"/>
			<polygon class="st0" points="1106.8,664.5 881.4,616.4 881.1,596.5 1106.4,644.1 			"/>
			<polygon class="st0" points="1106.3,635.9 880.9,587.9 880.6,567.9 1106,615.6 			"/>
			<path class="st0" d="M1107.4,638.8l-0.5-29.4l53-7l6.4-262.3l-67.7-49l-0.4,71.9l-19.3,51.5l-39.3,10.8l0.5,29.4l43.1,23.4
				l1.8,59.3l-4.6,6.7l0-0.5l-12,14c-1.5,3.7-3.5,7-6.1,9.4c-2.5,2.3-4.9,4.4-7.3,6.3l-12.6,14.7l1.7,98.1L1107.4,638.8z
				 M1100.6,301.4l60.6,40.2l-6.9,258.6l-11.2,0.2l6.9-254.8C1150,345.5,1100.9,320.1,1100.6,301.4z M1083.3,416.9l18.3-51.9
				l1.8,1.8l-19,51.6l-31.4,7.1l-4-0.4L1083.3,416.9z M1089.7,540.7l-2.7-66.9l-12.8-6.1l7,0l8.9,3.5l2.6,69.8l-38.8,43.9l-2.6,0
				L1089.7,540.7z M1093.8,638.4l1.2-29.8l4.3-2.1l-0.8-14.7l19.6-7.9l9.5,1.7l-26.3,9.7l0.9,14.7l-3.8,0.8l0.5,29.7l-48.6,35.1
				l2.3-7.5L1093.8,638.4z"/>
		</g>
		<polygon class="st1" points="884.7,583.8 884.4,570.8 1102.2,616.6 1102.4,633 1096.5,617.7 889.2,574.5 		"/>
		<polygon class="st1" points="885.1,612.9 885.2,615.8 1102.9,662.1 1102.9,659.6 		"/>
		<g>
			<path d="M1023.7,329.9l4.9-0.1l-0.4-22.5l-4.9,0.1l-3.5-205.1l1.8,0l-0.1-4l-0.1-5.9l-3.1,0.1l-0.2-13l3.1-0.1l-0.1-8
				c-0.5,0.4-1,0.9-1.4,1.4c-1.1,1.6-2.4,8-2.7,9.9c-0.4,1.9-0.3,9.8,0.5,12.3c0.8,2.6-1.6,8.6-2.1,10.7
				c-0.5,2.1,2.2,127.4,1.9,128.5c-0.3,1.1,0.8,71.9,0.6,72.5c-0.1,0.6,5,6.1,5.9,7c0.9,0.9-3.3,20.8-3.6,22.3
				c-0.2,0.9,0.1,6.1,0.4,10.2l3.3-0.1L1023.7,329.9z"/>
			<path d="M1022.5,47.7c0.5,3.7,0.4,19.1,0.6,20.8c0,0,0,0.1,0,0.1l3-3.5l-0.4-21l-3.4,0.1l-0.1-7.1l-5.1,0.1
				c0.7,1.5,1.1,4.3,1.5,5.3C1019.2,43.9,1022,43.9,1022.5,47.7z"/>
			<path d="M1002.3,346.6l-2.1,0l0.1,7.7l26.3-0.4l-0.1-7.7l-5.7,0.1c0.2,2.9,0.4,5.2,0.4,5.2s-1,0.4-0.5,1.1l-4.7,0.1
				c0-0.6,0.1-3.3,0.3-6.3l-9.2,0.2l9.2-0.2c0.2-4.8,0.5-10.5,0.5-10.5l3.9-19.6l-7.9-9.3l-0.8-202c0,0,2.6-7,2.8-8.7
				c0.2-1.7-1.4-8.4-1.6-10.8c-0.2-2.4,2.2-10.1,3.3-11.8c1.1-1.8,4.5-4.7,4.4-6.1c-0.1-1.4-0.3-16.9-0.4-18.1
				c-0.1-1.2-2.6-3.7-3.4-4.2c-0.9-0.6-4.2-0.3-4.4-3c-0.1-1.7,0-3.8,0.2-5l-19.9,0.3l0.1,4.3l-3.7,0.1l0.4,24.7l4.1,4.6l0.4,6.5
				l1.8,0l0.2,13.6l-3.4,0.1l0.1,7.4l7.3-0.1l-5.5,0.1l0.1,4l3.4-0.1l3.5,209.3l-4.6-0.2l-21.7-37l-2.2-75l-20.1-9.9l6.4,88.2
				l16.3,39.9l26.4,24.9L1002.3,346.6z"/>
			<path d="M931.7,355.5l12.5,48.9l40.4-1.9l13.9,44.9l11-0.2l-1.4-80.6l-26.6,0.4l-3.9-12.3L931.7,355.5z M1006.7,369.2l1.3,76.7
				l-1.5,0l-1-75.3l-26.6,0.6l-3.9-13.4l-38.8,0.4l-1.7-1l41.8-0.7l4,13L1006.7,369.2z"/>
			<path d="M1077.3,402.2l10.8-49.3l-45.9,0.8l-3.5,12.4l-26.6,0.4l1.4,80.6l11-0.2l12.4-45.3L1077.3,402.2z M1078,356.2l5.5,6.3
				l-8.3,35l6.7-34.8l-4.5-5.1l-30.9,0.6l-2.9-1.4L1078,356.2z M1040.2,368l2.1-7.3l0.8,0.6l-2,7.9l-10.8,0.2l-1-1.2L1040.2,368z
				 M1023.6,445.7l-0.6-1.8l11.3-44.9l38.9,0.1l0.7,1.5l-38.6-0.4L1023.6,445.7z"/>
			<path d="M957.5,525.6c0.5,29.8,24.9,53.6,54.5,53.1c29.6-0.5,53.1-25.1,52.6-54.9c-0.5-29.8-24.9-53.6-54.5-53.1
				C980.6,471.2,957,495.8,957.5,525.6z M1044.6,524.1c0.3,18.7-14.4,34.1-33,34.4c-18.5,0.3-33.8-14.6-34.1-33.3
				c-0.3-18.7,14.4-34.1,33-34.4S1044.3,505.5,1044.6,524.1z"/>
			<path d="M913.6,731.1l1.1,27.6c9.1-5.9,18.6-11.3,28.1-16.5L913.6,731.1z"/>
			<path d="M1037.6,653.8l0.7,46.9c4.2,2.1,7.9,5.3,10.5,9.2l-0.1-8.7l48.1-33.8l1.2,70c9.6,5.4,19.3,10.6,28.7,16.2
				c0.6,0.3,1.2,0.7,1.7,1l-1.1-147.9l32.7-4.3l6.4-262.3l-67.7-49l-0.4,71.9l-19.3,51.5l-39.3,10.8l0.5,29.4l43.1,23.4l1.8,59.3
				l-4.6,6.7l0-0.5l-12,14c-1.5,3.7-3.5,7-6.1,9.4c-0.6,0.5-1.2,1.1-1.7,1.6l0,0c-0.5,0.4-1,0.9-1.5,1.3c-0.1,0.1-0.2,0.1-0.2,0.2
				c-0.4,0.4-0.9,0.8-1.3,1.1c-0.1,0.1-0.3,0.2-0.4,0.3c-0.4,0.4-0.9,0.7-1.3,1.1c-0.1,0.1-0.3,0.2-0.4,0.3c-0.5,0.4-1,0.8-1.6,1.2
				c-0.8,1.1-1.6,2.1-2.6,3c-1.2,1.4-2.6,2.7-4.1,3.7l0,1.4l-4.8,5.6l0.2,14l-5.8-1.2l0-0.3c-0.4,0-0.7,0-1.1,0.1l-72.5-15.3
				l-0.3-15.4l-22.2-30.1l-0.2-59.3l42.3-24.9l-0.5-29.4l-39.6-9.5L923,369l4.7-4.3l-0.2-3l-5.4,2.1l2.8-2.8l-3.3,1.5l-2.7-68.3
				l-66,51.3l15.3,262l13,1.3l0.1,7.8l31,6.6l1.1,67.3l3.1,1.3l25.8,11.2l0.7,39.1c17.1-9.4,34.5-18.2,51.3-27.9l-0.9-66.5
				L1037.6,653.8z M1127.1,585.8l0-0.3l0.6,0.1L1127.1,585.8z M1161.2,341.6l-6.9,258.6l-11.2,0.2l6.9-254.8
				c0,0-49.1-25.4-49.4-44.1L1161.2,341.6z M1049.1,425l34.2-8.1l18.3-51.9l1.8,1.8l-19,51.6l-31.4,7.1L1049.1,425z M1089.7,540.7
				l-2.7-66.9l-12.8-6.1l7,0l8.9,3.5l2.6,69.8l-19.7,22.3l-4.6,2L1089.7,540.7z M858.3,347.4L876,600.9l5.2,0.5l0,2.2l-7.3-0.7
				l-17.2-255.9l59.5-47.1l-0.5,1.4L858.3,347.4z M914.9,365.3l-0.1-7.6c0,0,2.2-5.5,2.4-5.8l0.1,12.3L914.9,365.3z M917.7,373.8
				l2-1.8l20.1,47.7l38.9,8.6l0.4,26.5l-1.8,1.4l-0.4-26.2l-39.4-8.6L917.7,373.8z"/>
		</g>
		<path class="st0" d="M1023.7,329.9l4.9-0.1l-0.4-22.5l-4.9,0.1l-3.5-205.1l1.8,0l-0.1-4l-0.1-5.9l-3.1,0.1l-0.2-13l3.1-0.1l-0.1-8
			c-0.5,0.4-1,0.9-1.4,1.4c-1.1,1.6-2.4,8-2.7,9.9c-0.4,1.9-0.3,9.8,0.5,12.3c0.8,2.6-1.6,8.6-2.1,10.7
			c-0.5,2.1,2.2,127.4,1.9,128.5c-0.3,1.1,0.8,71.9,0.6,72.5c-0.1,0.6,5,6.1,5.9,7c0.9,0.9-3.3,20.8-3.6,22.3
			c-0.2,0.9,0.1,6.1,0.4,10.2l3.3-0.1L1023.7,329.9z"/>
		<path class="st0" d="M1022.5,47.7c0.5,3.7,0.4,19.1,0.6,20.8c0,0,0,0.1,0,0.1l3-3.5l-0.4-21l-3.4,0.1l-0.1-7.1l-5.1,0.1
			c0.7,1.5,1.1,4.3,1.5,5.3C1019.2,43.9,1022,43.9,1022.5,47.7z"/>
		<path d="M1002.3,346.6l-2.1,0l0.1,7.7l26.3-0.4l-0.1-7.7l-5.7,0.1c0.2,2.9,0.4,5.2,0.4,5.2s-1,0.4-0.5,1.1l-4.7,0.1
			c0-0.6,0.1-3.3,0.3-6.3l-9.2,0.2l9.2-0.2c0.2-4.8,0.5-10.5,0.5-10.5l3.9-19.6l-7.9-9.3l-0.8-202c0,0,2.6-7,2.8-8.7
			c0.2-1.7-1.4-8.4-1.6-10.8c-0.2-2.4,2.2-10.1,3.3-11.8c1.1-1.8,4.5-4.7,4.4-6.1c-0.1-1.4-0.3-16.9-0.4-18.1
			c-0.1-1.2-2.6-3.7-3.4-4.2c-0.9-0.6-4.2-0.3-4.4-3c-0.1-1.7,0-3.8,0.2-5l-19.9,0.3l0.1,4.3l-3.7,0.1l0.4,24.7l4.1,4.6l0.4,6.5
			l1.8,0l0.2,13.6l-3.4,0.1l0.1,7.4l7.3-0.1l-5.5,0.1l0.1,4l3.4-0.1l3.5,209.3l-4.6-0.2l-21.7-37l-2.2-75l-20.1-9.9l6.4,88.2
			l16.3,39.9l26.4,24.9L1002.3,346.6z"/>
		<path d="M931.7,355.5l12.5,48.9l40.4-1.9l13.9,44.9l11-0.2l-1.4-80.6l-26.6,0.4l-3.9-12.3L931.7,355.5z M1006.7,369.2l1.3,76.7
			l-1.5,0l-1-75.3l-26.6,0.6l-3.9-13.4l-38.8,0.4l-1.7-1l41.8-0.7l4,13L1006.7,369.2z"/>
		<path d="M1077.3,402.2l10.8-49.3l-45.9,0.8l-3.5,12.4l-26.6,0.4l1.4,80.6l11-0.2l12.4-45.3L1077.3,402.2z M1078,356.2l5.5,6.3
			l-8.3,35l6.7-34.8l-4.5-5.1l-30.9,0.6l-2.9-1.4L1078,356.2z M1040.2,368l2.1-7.3l0.8,0.6l-2,7.9l-10.8,0.2l-1-1.2L1040.2,368z
			 M1023.6,445.7l-0.6-1.8l11.3-44.9l38.9,0.1l0.7,1.5l-38.6-0.4L1023.6,445.7z"/>
		<g class="st2">
			<path class="st1" d="M964.2,694.1l0.6,36.3c4.1-2.2,8.2-4.4,12.2-6.6l-0.6-32.8l-30.3-6.2l-1.2-55.6l-12.9-3.4l1.6,59.2
				L964.2,694.1z"/>
			<path class="st1" d="M962,788.5l0.7,39.1l12.4,3l-0.6-49C970.3,783.9,966.1,786.2,962,788.5z"/>
		</g>
		<g>
			<g>
				<path class="st1" d="M661.9,920.6c1.9,0,1.9-3,0-3C659.9,917.6,659.9,920.6,661.9,920.6L661.9,920.6z"/>
			</g>
		</g>
	</g>
	<polyline points="490.9,733.3 534,781.7 599,852.3 561.6,890.8 388.6,794.6 490.9,733.3 	"/>
	<polyline points="1454,851.2 1550.2,734.4 1626.1,788.2 1480.9,879 1454,851.2 	"/>
	<polygon points="806,658 711.6,710.5 722.1,733.3 811.2,683.9 	"/>
	<polygon class="st3" points="1523.3,771.8 1288.3,773 1224,737.6 1221.8,807.1 1247.4,822.1 1495.3,815.1 1524.6,845.5 
		1450.8,1570.4 1018.6,1772.6 606.7,1578.6 582.1,1547 517.8,845.5 558.7,816.3 789.1,822.1 833.8,795.9 821,732.5 752.3,770.7 
		521.3,770.7 465.2,801.1 554.1,1597.3 1018.6,1810.7 1486.4,1597.3 1579.5,805.7 	"/>
	<polygon points="507.3,1623 481,1649.3 1018.6,1906.7 1017,1865.9 	"/>
	<polygon points="1329.8,710.5 1314,728.6 1550.2,734.4 1575.4,714 	"/>
	<polygon points="1575.4,714 1329.8,710.5 1226.6,653.8 1225.7,680.9 1314,728.6 1550.2,734.4 1626.1,788.2 1525.7,1620.7 
		1017,1865.9 507.3,1623 407.9,788.2 490.9,733.3 722.1,733.3 811.2,683.9 806,658 711.6,710.5 471.6,710.5 368.8,784.1 481,1649.3 
		1018.6,1906.7 1554.3,1649.3 1668.5,784.1 	"/>
	<polygon points="1010.1,1539.8 936.9,1687.3 936.9,1721.9 936.9,1787.5 936.9,1826.8 1018.2,1910 1100.1,1826.8 1100.1,1787.5 
		1100.1,1723.7 1100.1,1723 1100.1,1698.1 	"/>
	<path d="M635.1,1466l-29.7,18.5c-0.1-0.3-0.1-0.6-0.1-0.8l-52.7,29.3l22.3,52.5l75.9,76.1l38-61.9l19.5-24.2l37.9-29.3l16.8-86.7
		L635.1,1466z"/>
	<path d="M1449.7,1502.2c0-17.9-8.1-60.2-16.3-73.2c-4.1-6.6-15.6-15.7-31.1-23.4c-15.4-7.8-35-14-55.1-14.6
		c-39.6-1.1-75.9,7-75.9,7s0.4,0.2,1.1,0.5c0,0,0,0,0,0c-2.7,29.8,34.7,97.6,34.7,97.6l62.9,40.7l0,0l-9.7,82.1l77.9-37.2l11.5-4.7
		C1449.7,1577,1449.7,1520.1,1449.7,1502.2z"/>
	<path d="M1454,851.2l-226.3,6.4L1018.8,735L809.3,857.6L599,852.3L561.6,879l52.2,568.9l13.3-8.3l173.2-36l-22.8,117.4l-27.7,40.5
		l-26.9,24.6l164.9,77.2l115.8-188.2l160.2,180.1l169.5-83l0,0l-52.6-46.8c0,0-42.5-116.6-39.1-154c0,0,0,0,0,0
		c-0.9-0.4-1.4-0.7-1.4-0.7s45.6-10.2,95.4-8.9c25.3,0.7,49.7-1.7,69,8.1c9.1,4.5,18.1,3.4,24.6,8.2l51.6-499.1L1454,851.2z"/>
	<path class="st4" d="M1454,851.2l-226.3,6.4l-201.1-118.1v761.4l137.2,154.2l169.5-83l-52.6-46.8c0,0-42.5-116.6-39.1-154
		c0,0,0,0,0,0c-0.9-0.4-1.4-0.7-1.4-0.7s45.6-10.2,95.4-8.9c25.3,0.7,49.7-1.7,69,8.1c9.1,4.5,18.1,3.4,24.6,8.2l51.6-499.1
		L1454,851.2z"/>
	<path class="st5" d="M1023,781.7c0,0-22.4,250.9-33.2,345.9c-10.8,95,36.7,311.8,36.7,311.8s34.7-324,38-328.9
		C1067.9,1105.6,1023,781.7,1023,781.7z"/>
</g>
</svg>
