<?xml version="1.0" encoding="utf-8"?>
<!-- Generator: Adobe Illustrator 25.2.1, SVG Export Plug-In . SVG Version: 6.00 Build 0)  -->
<svg version="1.1" id="Layer_1" xmlns="http://www.w3.org/2000/svg" xmlns:xlink="http://www.w3.org/1999/xlink" x="0px" y="0px"
	 viewBox="0 0 2000 2000" style="enable-background:new 0 0 2000 2000;" xml:space="preserve">
<style type="text/css">
	.st0{fill:#FFFFFF;}
	.st1{fill:#4A4A4A;}
</style>
<path class="st0" d="M907.3,1267.4c0.4,1.2,0.8,2.4,1.2,3.6c0.4,1,0.8,2.1,1.2,3.1C908.1,1269.5,907.4,1267.6,907.3,1267.4z"/>
<g>
	<path class="st1" d="M1376.3,1525.7c13.5-12.4-77-26.7-77-26.7s16.5-139.2,199.9-226.5c0,0-43.2,81.7-39.9,117.7
		c0,0,24.7-53.5,93-83c0,0-35.5,77.7-32.2,131.7c0,0,58.9-101.3,131.4-131.2c0,0-53.2,96.7-42,135.8c0,0,41.3-41.1,108.3-59.9
		c0,0-52.6,45-59.7,82.2c0,0,37.9-21.6,88.4-33.1c0,0-65.9,81.4-68.5,104.1c-2.6,22.7-108.1,0-108.1,0l-112.9-8.6L1376.3,1525.7z"/>
	<path class="st1" d="M1080.1,1555.3c0,0,10.7-136.7,264.7-287.3c0,0-197.6,206.1-188.2,301.2l-37.6,7.9L1080.1,1555.3z"/>
	<path class="st1" d="M804,1545.7c0,0,42.3-126.6-117.6-213.8c0,0,77.2,158.1,24.5,213.8H804z"/>
	<path class="st1" d="M1755.4,1591.8c-6.9-4.2-27-15.1-55.8-19.7c18.8,0.9,43.4,2.2,70.7,3.9c18.7-19.8,37.2-39.8,56.1-59.5
		c-36.9-3.6-63.5-6.2-63.5-6.2l-111.9-10.9l-71.6-36.7c0,0,0-15.9,48.3-63.4c48.3-47.6,137.3-96.2,137.3-96.2
		s-138.7,29.8-205.6,126.4c0,0,15-52.4,46.5-100.8c0,0-58.8,24.2-86.1,83c0,0-8-60,1.7-91.7c0,0-40.8,78.2-39.7,118.4l-9.1,32.9
		l-21.3-12.9l-16.7,12.3l-47.2-12.3l-36.3,18.3l-51.1,6.1l-58.6,35.4l-48.3,23.8l-19.3-15.9l-35.2,13.8l-31.5-6.8l-39.6,24.7
		l-52.6-24.7l-11.5,14.8L971,1542l-8.3,7.5l-117.2-39.2l-9.4,22.9l-38.9-30.8l-25,30.8l-71.5-38.7l-7.6,20.6l-60-44.3l-29,15.9
		l-32.6-35.3c0,0-15.7-131.2-179.9-170.8c0,0,97,68.1,106.5,129.2c0,0-77.5-57.8-125.8-65.7c0,0,80.9,49,69.4,87.9
		c0,0-40.5-40.4-88.8-48.3c0,0,54.1,46.7,41.5,74.9c0,0-22.2-90.7-128.5-138.3c0,0,67.6,118.9,57.9,166.5l-42.2-48.1l3.5,64
		l-57.9,15.9l-53.3,10.2c26.6,22.6,53,45.9,76.7,70.8l68.3,10.2l57.9-15.9v16.6l96.6-26.3h316.8l195.3-6.2l193,15.9l135.2-31.7
		l440.2,31.4C1754.5,1592.8,1755,1592.3,1755.4,1591.8z"/>
	<path class="st1" d="M1504.7,1531.1c-56.1-23-126.2-34.5-126.2-34.5l98.2-80.6l-132,62.1l69.8-98.9l-130.1,100.5l-4-17.6l-28,11.5
		l-14-11.5l-44.6,17.6l-11.5-17.6l-79.6,9.4l-158.9-20.9l-42.1,11.5l-20.3-16l-73-121.6v94.4l-19.6-30.9l-13.3,39.5l-57-159.4
		l15.3,156l-28.4-42.6l-0.4,42.6l-76.5-15.2c0,0-50.5,11.2-109.5,6.3c-12.9-1.1-39.7-3.6-73.6-6.8c-0.7,0.8-1.5,1.5-2.3,2.2
		c-35.8,34.1-70.1,69.3-103.8,104.8c104.6,7,261.3,24.4,330,20.7c92.2-5-73.2-25,44.5-20.8c117.8,4.3,220.1,61,358.2,61.4
		c138.2,0.4,236.3,0.4,292.4-11.1c56.1-11.5,56.1,0,14-11.5c-42.1-11.5,139,28.1,209.7,19.8c70.8-8.3,112.8-8.3,112.8-8.3
		S1560.8,1554.1,1504.7,1531.1z"/>
</g>
<path class="st1" d="M853.1,504.6c-0.7-0.7-1.4-1.4-2.1-2c-6.2-6.2-8.7-14.2-7.9-22.2l-2-0.3l-29.1,7.9l-65.4,3.7l-123.1,3.7
	l-42,8.5l-115.7-1l-23.1,18.7l-50.8,8.5c0,0,25.8,8.3,60.5,4.6s67.4-15.5,91.4-13.3c24,2.1,74,9.6,77.9,9.6c3.8,0,44.5-14.8,58.8-13
	c14.3,1.8,95.1,5.5,95.1,5.5l61.5-22.5v12.3L853.1,504.6z"/>
<path class="st1" d="M764.6,654.2c-0.9-1.4-1.8-2.8-2.6-4.2c-7.9-12.7-11.1-29.4-10.1-45.7l-2.6-0.5l-37.2,16.3l-83.7,7.7
	l-157.5,7.7l-53.7,17.6l-148-2.1l-29.5,38.6l-65.1,17.6c0,0,33.1,17.1,77.4,9.4s86.2-31.9,116.9-27.5c30.7,4.4,94.7,19.8,99.6,19.8
	c4.9,0,56.9-30.5,75.2-26.8c18.3,3.7,121.7,11.4,121.7,11.4l78.7-46.4v25.4L764.6,654.2z"/>
<path class="st1" d="M917.6,819.2c-0.9-1.4-1.8-2.8-2.6-4.2c-7.9-12.7-11.1-29.4-10.1-45.7l-2.6-0.5l-37.2,16.3l-83.7,7.7
	l-157.5,7.7l-53.7,17.6l-148-2.1l-29.5,38.6l-65.1,17.6c0,0,33.1,17.1,77.4,9.4s86.2-31.9,116.9-27.5c30.7,4.4,94.7,19.8,99.6,19.8
	c4.9,0,56.9-30.5,75.2-26.8c18.3,3.7,121.7,11.4,121.7,11.4l78.7-46.4v25.4L917.6,819.2z"/>
<path class="st1" d="M812.6,999.2c-0.9-1.4-1.8-2.8-2.6-4.2c-7.9-12.7-11.1-29.4-10.1-45.7l-2.6-0.5l-37.2,16.3l-83.7,7.7
	l-157.5,7.7l-53.7,17.6l-148-2.1l-29.5,38.6l-65.1,17.6c0,0,33.1,17.1,77.4,9.4s86.2-31.9,116.9-27.5c30.7,4.4,94.7,19.8,99.6,19.8
	c4.9,0,56.9-30.5,75.2-26.8c18.3,3.7,121.7,11.4,121.7,11.4l78.7-46.4v25.4L812.6,999.2z"/>
<path class="st1" d="M1556,1236.7c1.9-8.8,4.6-17.2,9.1-24.4c5.5-8.9,12.7-16.8,19.1-25.2c7.7-10,15.4-20,23.1-30.1
	c-4.5,3.3-8.7,6.8-12.8,10.3c-3.5,3-6.9,6.2-10.2,9.4c-0.2,0.2-0.4,0.4-0.6,0.6c-3.3,3.2-6.6,6.5-9.7,9.9c0,0,0,0,0,0.1
	c-2.8,3-5.5,5.9-8.4,8.3c-0.6,0.5-1.2,0.9-1.8,1.4c-0.9,0.6-1.8,1.2-2.7,1.7c-1.5,0.8-3,1.5-4.7,1.9c-0.2,0-0.3,0.1-0.5,0.1
	c-1.3,0.3-2.7,0.4-4.1,0.4c-0.2,0-0.4,0-0.6,0c-1-0.1-2.1-0.3-3.2-0.5c-2.1-0.5-4.3-1.3-6.6-2.6c-0.3,2.8-0.5,5.6-0.8,8.3
	c-0.9,7.1-2.9,13.2-10.3,16.5c-0.8,0.4-1.7,0.7-2.7,1c-3.9-7.6-7.6-14.8-12-23.5c-1.5-2.9-3-5.9-4.7-9.1c0.1,2.2,0.1,4.3,0.2,6.4
	c0.5,14.5,0.9,26.3,1.2,38.4c0,0,0,0,0,0l0,0c-0.5,0.2-0.9,0.3-1.4,0.5c-3.4,1.2-6.6,2.3-9.5,3.4l0,0l0,0
	c-9.9-9.3-15.3-21.9-17-35.5c-0.2-1.5-0.3-3-0.4-4.5c-0.1-1.5-0.2-3.1-0.2-4.6c0-3.1,0.1-6.2,0.4-9.3c2.8-29.4,20.3-58.4,44.5-65.5
	c4.8-1.4,9.6-2.6,14.4-3.8c0.2,0,0.4-0.1,0.5-0.1c4.8-1.1,9.6-2,14.4-2.9c0.2,0,0.4-0.1,0.6-0.1c4.9-0.8,9.7-1.6,14.7-2.2
	c0.1,0,0.2,0,0.3,0c26.9-3.3,54.8-3.5,85-2.3c-11,43.1-20.2,84.1-32.1,124.3c-16.4,55.3-73.6,54.4-110.4,29.6
	C1523.6,1244.6,1543,1244.8,1556,1236.7z"/>
<path class="st1" d="M1488.8,1060.5c-6.4-6.3-12.1-13-15.8-20.7c-4.6-9.4-7.5-19.7-11.1-29.5c-4.4-11.8-8.8-23.7-13.2-35.5
	c0.4,5.5,1.1,10.9,1.9,16.3c0.7,4.6,1.6,9.1,2.5,13.6c0.1,0.3,0.1,0.6,0.2,0.9c1,4.5,2,9,3.2,13.5c0,0,0,0,0,0.1
	c1,3.9,2.1,7.8,2.6,11.6c0.1,0.8,0.2,1.5,0.2,2.2c0.1,1.1,0.1,2.1,0,3.2c-0.1,1.7-0.4,3.4-0.9,5c-0.1,0.2-0.1,0.3-0.2,0.5
	c-0.5,1.3-1.1,2.5-1.9,3.7c-0.1,0.2-0.2,0.3-0.3,0.4c-0.6,0.8-1.3,1.6-2.1,2.4c-1.5,1.5-3.4,2.9-5.8,4.2c2.3,1.7,4.5,3.4,6.6,5.1
	c5.6,4.6,9.7,9.5,8.5,17.5c-0.1,0.9-0.3,1.8-0.6,2.8c-8.5-0.7-16.6-1.5-26.3-2.3c-3.2-0.3-6.6-0.6-10.2-0.9c1.9,1.1,3.7,2.2,5.5,3.2
	c12.5,7.3,22.7,13.3,33.2,19.4c0,0,0,0,0,0l0,0c-0.1,0.5-0.2,1-0.3,1.5c-0.8,3.5-1.5,6.8-2.2,9.8l0,0l0,0
	c-13.2,3.4-26.7,1.2-39.1-4.5c-1.4-0.6-2.7-1.3-4.1-2c-1.3-0.7-2.7-1.5-4-2.3c-2.6-1.6-5.2-3.4-7.6-5.3
	c-23.4-18.1-38.6-48.3-31.7-72.6c1.4-4.8,2.9-9.5,4.5-14.2c0.1-0.2,0.1-0.3,0.2-0.5c1.6-4.6,3.4-9.2,5.2-13.7
	c0.1-0.2,0.2-0.4,0.2-0.6c1.9-4.6,3.9-9.1,6-13.6c0-0.1,0.1-0.2,0.1-0.3c11.5-24.6,26.3-48.2,43.3-73.1
	c30.6,32.3,60.4,61.9,88.1,93.4c38.1,43.3,6.8,91.3-33.7,109.2C1478.2,1092.1,1488.7,1075.8,1488.8,1060.5z"/>
<path d="M1502.6,1393.3c-0.5-48.7-2.7-24.6-126.8-121.9c-124.1-97.3-83.4-228.8-91.1-244.2c-7.7-15.4-60.6,20.8-47.7-21.3
	c12.8-42.2,156.1-403.2,162.8-418.1c6.7-15-50.4-34.6-89-54.5c-218.7-112.4-410.7-126.8-447.4-135.1c-36.7-8.3-19.4,13.2-23.3,35.3
	c-3.9,22.2-79,377.8-99,422.7c-20.1,44.9-87.8,62.5-103.4,97.5c-15.6,34.9-86.9,194.6-57,208c29.9,13.4,101,15.2,185.8,53.1
	c84.8,37.9,70.9,55.6,194.5,140.8c123.6,85.1,281.1,161.5,407.5,200c126.5,38.5,125.9,26.3,162.1-41.3
	C1566.9,1446.5,1503.1,1442,1502.6,1393.3z M1116.9,531.2c76.2-0.5,229.2,74.7,229.2,74.7l-161.5,399.9l-170.3-6.8L1116.9,531.2z
	 M1088.7,1072.6l146.3-5.7l8.4,76.4l-97.4,28.1L1088.7,1072.6z M1453.9,1393c-11.6,17.7-10.5,26.5-134.5-21.1
	c-124-47.5-122.3-125.4-122.3-125.4l82.6-40.1c0,0,26.7,64.3,97.4,110.8C1447.9,1363.7,1465.6,1375.3,1453.9,1393z"/>
</svg>
