<?xml version="1.0" encoding="utf-8"?>
<!-- Generator: Adobe Illustrator 25.2.1, SVG Export Plug-In . SVG Version: 6.00 Build 0)  -->
<svg version="1.1" id="Layer_1" xmlns="http://www.w3.org/2000/svg" xmlns:xlink="http://www.w3.org/1999/xlink" x="0px" y="0px"
	 viewBox="0 0 700 700" style="enable-background:new 0 0 700 700;" xml:space="preserve">
<path d="M135.3,321.5L100.6,359l34.7,37.5c118.5,128.1,310.8,128.1,429.3,0l34.7-37.5l-34.7-37.5
	C446.1,193.4,253.9,193.4,135.3,321.5L135.3,321.5z M350,444c-46.9,0-85-38.1-85-85s38.1-85,85-85s85,38.1,85,85S396.9,444,350,444z
	"/>
<path d="M393.4,359c0,24-19.4,43.4-43.4,43.4S306.6,383,306.6,359s19.4-43.4,43.4-43.4S393.4,335,393.4,359"/>
</svg>
