<?xml version="1.0" encoding="utf-8"?>
<!-- Generator: Adobe Illustrator 25.2.1, SVG Export Plug-In . SVG Version: 6.00 Build 0)  -->
<svg version="1.1" id="Layer_1" xmlns="http://www.w3.org/2000/svg" xmlns:xlink="http://www.w3.org/1999/xlink" x="0px" y="0px"
	 viewBox="0 0 2000 2000" style="enable-background:new 0 0 2000 2000;" xml:space="preserve">
<style type="text/css">
	.st0{fill:#4A4A4A;}
</style>
<g>
	<path d="M829.1,709.9c-26.2,1.2-51.7,0.1-75.4-7.1c-29.2-8.9-56.8-22.9-85.1-34.6c-34-14.1-67.9-28.1-101.9-42.1
		c12.6,10.1,25.6,19.3,38.7,28.1c11.2,7.6,22.6,14.7,34.1,21.6c0.7,0.4,1.5,0.9,2.2,1.3c11.6,6.9,23.3,13.5,35.2,19.9
		c0.1,0,0.1,0.1,0.2,0.1c10.4,5.6,20.8,11,29.8,17.4c1.8,1.3,3.5,2.6,5.2,3.9c2.4,2,4.7,4.1,6.8,6.3c3.5,3.5,6.5,7.4,8.9,11.7
		c0.3,0.5,0.5,0.9,0.8,1.4c1.8,3.5,3.2,7.2,4.1,11.3c0.1,0.5,0.2,1.1,0.3,1.6c0.6,2.9,0.9,6.1,0.9,9.4c0.1,6.2-0.5,13-2.4,20.6
		c8.2-1.4,16.2-3,23.9-4c20.8-2.8,39.4-1.9,54.2,16.5c1.7,2.1,3.3,4.3,4.9,6.9c-18.4,16.7-36,32.6-56.9,51.6
		c-7,6.3-14.3,13-22.2,20.1c6.1-1.9,12-3.7,17.8-5.4c40.4-12.3,73.4-22.3,107.1-32.5c0,0,0,0,0,0l0,0c0.9,1.3,1.6,2.4,2.5,3.6
		c6,8.7,11.6,16.8,16.6,24.1l0,0l0,0c-18.8,34.8-50.1,59.5-86.9,74.6c-4.1,1.7-8.2,3.2-12.4,4.7c-4.2,1.4-8.5,2.8-12.8,4
		c-8.6,2.4-17.4,4.4-26.4,5.9c-84.8,14.2-179.6-12.9-217.7-75.7c-7.6-12.5-14.7-25.1-21.5-37.8c-0.3-0.5-0.5-0.9-0.8-1.4
		c-6.7-12.6-13-25.3-19-38.2c-0.3-0.5-0.5-1.1-0.8-1.6c-6-13-11.7-26.2-17.2-39.6c-0.1-0.3-0.3-0.6-0.4-0.9
		c-29.7-73.1-51.1-151.4-70.6-237.2c129.5-1.6,251.8-6.8,373.8-3.8c168,4.2,208.5,166,166.7,288
		C875.7,794.9,861.6,740.2,829.1,709.9z"/>
	<path d="M1252.2,844.7c9.7-24.3,21.2-47.2,37.5-65.8c20.1-22.9,44.3-42.3,66.6-63.3c26.8-25.1,53.6-50.3,80.4-75.5
		c-14.4,7.3-28.1,15.3-41.5,23.7c-11.5,7.1-22.7,14.5-33.7,22.2c-0.7,0.5-1.4,1-2.1,1.5c-11.1,7.7-21.9,15.7-32.6,23.9
		c-0.1,0-0.1,0.1-0.2,0.1c-9.4,7.2-18.6,14.4-28.1,20c-1.9,1.1-3.8,2.2-5.7,3.1c-2.8,1.4-5.7,2.6-8.5,3.6c-4.7,1.7-9.4,2.8-14.3,3.3
		c-0.5,0-1,0.1-1.6,0.1c-3.9,0.2-7.9-0.1-12-0.9c-0.5-0.1-1-0.3-1.6-0.4c-2.9-0.7-5.9-1.7-9-3c-5.7-2.4-11.6-5.8-17.8-10.7
		c-2.1,8-4,15.9-6.2,23.4c-6,20.1-14.6,36.7-37.4,42.6c-2.6,0.7-5.3,1.2-8.3,1.6c-7.6-23.6-14.9-46.2-23.6-73.1
		c-2.9-8.9-5.9-18.4-9.2-28.5c-0.8,6.3-1.6,12.5-2.4,18.5c-5.5,41.9-9.9,76.1-14.5,111c0,0,0,0,0,0l0,0c-1.5,0.3-2.8,0.5-4.3,0.8
		c-10.3,1.9-20,3.6-28.8,5.2l0,0l0,0c-24-31.5-33.6-70.2-32.2-109.9c0.2-4.4,0.4-8.8,0.9-13.3c0.4-4.4,1-8.9,1.6-13.3
		c1.3-8.9,3.2-17.7,5.5-26.4c22-83.1,85.8-158.4,158.7-167.2c14.5-1.8,28.9-3,43.3-4c0.5,0,1.1-0.1,1.6-0.1
		c14.2-0.9,28.4-1.4,42.6-1.6c0.6,0,1.2,0,1.8,0c14.4-0.1,28.7,0.1,43.1,0.6c0.3,0,0.7,0,1,0c78.9,3,159,15.8,245.2,33.4
		c-51.9,118.7-97.5,232.2-150.5,342.2c-73,151.3-237.1,121.6-331.1,33.3C1155.6,852.2,1211.2,861.9,1252.2,844.7z"/>
	<path d="M1157.2,1260.4c26.2-1.2,51.7-0.1,75.4,7.1c29.2,8.9,56.8,22.9,85.1,34.6c34,14.1,67.9,28.1,101.9,42.1
		c-12.6-10.1-25.6-19.3-38.7-28.1c-11.2-7.6-22.6-14.7-34.1-21.6c-0.7-0.4-1.5-0.9-2.2-1.3c-11.6-6.9-23.3-13.5-35.2-19.9
		c-0.1,0-0.1-0.1-0.2-0.1c-10.4-5.6-20.8-11-29.8-17.4c-1.8-1.3-3.5-2.6-5.2-3.9c-2.4-2-4.7-4.1-6.8-6.3c-3.5-3.5-6.5-7.4-8.9-11.7
		c-0.3-0.5-0.5-0.9-0.8-1.4c-1.8-3.5-3.2-7.2-4.1-11.3c-0.1-0.5-0.2-1.1-0.3-1.6c-0.6-2.9-0.9-6.1-0.9-9.4c-0.1-6.2,0.5-13,2.4-20.6
		c-8.2,1.4-16.2,3-23.9,4c-20.8,2.8-39.4,1.9-54.2-16.5c-1.7-2.1-3.3-4.3-4.9-6.9c18.4-16.7,36-32.6,56.9-51.6
		c7-6.3,14.3-13,22.2-20.1c-6.1,1.9-12,3.7-17.8,5.4c-40.4,12.3-73.4,22.3-107.1,32.5c0,0,0,0,0,0l0,0c-0.9-1.3-1.6-2.4-2.5-3.6
		c-6-8.7-11.6-16.8-16.6-24.1l0,0l0,0c18.8-34.8,50.1-59.5,86.9-74.6c4.1-1.7,8.2-3.2,12.4-4.7c4.2-1.4,8.5-2.8,12.8-4
		c8.6-2.4,17.4-4.4,26.4-5.9c84.8-14.2,179.6,12.9,217.7,75.7c7.6,12.5,14.7,25.1,21.5,37.8c0.3,0.5,0.5,0.9,0.8,1.4
		c6.7,12.6,13,25.3,19,38.2c0.3,0.5,0.5,1.1,0.8,1.6c6,13,11.7,26.2,17.2,39.6c0.1,0.3,0.3,0.6,0.4,0.9
		c29.7,73.1,51.1,151.4,70.6,237.2c-129.5,1.6-251.8,6.8-373.8,3.8c-168-4.2-208.5-166-166.7-288
		C1110.6,1175.4,1124.6,1230.1,1157.2,1260.4z"/>
	<path d="M752.7,1125.6c-9.7,24.3-21.2,47.2-37.5,65.8c-20.1,22.9-44.3,42.3-66.6,63.3c-26.8,25.1-53.6,50.3-80.4,75.5
		c14.4-7.3,28.1-15.3,41.5-23.7c11.5-7.1,22.7-14.5,33.7-22.2c0.7-0.5,1.4-1,2.1-1.5c11.1-7.7,21.9-15.7,32.6-23.9
		c0.1,0,0.1-0.1,0.2-0.1c9.4-7.2,18.6-14.4,28.1-20c1.9-1.1,3.8-2.2,5.7-3.1c2.8-1.4,5.7-2.6,8.5-3.6c4.7-1.7,9.4-2.8,14.3-3.3
		c0.5,0,1-0.1,1.6-0.1c3.9-0.2,7.9,0.1,12,0.9c0.5,0.1,1,0.3,1.6,0.4c2.9,0.7,5.9,1.7,9,3c5.7,2.4,11.6,5.8,17.8,10.7
		c2.1-8,4-15.9,6.2-23.4c6-20.1,14.6-36.7,37.4-42.6c2.6-0.7,5.3-1.2,8.3-1.6c7.6,23.6,14.9,46.2,23.6,73.1
		c2.9,8.9,5.9,18.4,9.2,28.5c0.8-6.3,1.6-12.5,2.4-18.5c5.5-41.9,9.9-76.1,14.5-111c0,0,0,0,0,0l0,0c1.5-0.3,2.8-0.5,4.3-0.8
		c10.3-1.9,20-3.6,28.8-5.2l0,0l0,0c24,31.5,33.6,70.2,32.2,109.9c-0.2,4.4-0.4,8.8-0.9,13.3c-0.4,4.4-1,8.9-1.6,13.3
		c-1.3,8.9-3.2,17.7-5.5,26.4c-22,83.1-85.8,158.4-158.7,167.2c-14.5,1.8-28.9,3-43.3,4c-0.5,0-1.1,0.1-1.6,0.1
		c-14.2,0.9-28.4,1.4-42.6,1.6c-0.6,0-1.2,0-1.8,0c-14.4,0.1-28.7-0.1-43.1-0.6c-0.3,0-0.7,0-1,0c-78.9-3-159-15.8-245.2-33.4
		c51.9-118.7,97.5-232.2,150.5-342.2c73-151.3,237.1-121.6,331.1-33.3C849.3,1118.1,793.8,1108.4,752.7,1125.6z"/>
	<path d="M880.9,955.9c1,61.9,51.6,111.2,113,110.2s110.2-52.1,109.2-114c-1-61.9-51.6-111.3-113-110.2
		C928.7,843,879.8,894,880.9,955.9z M1061.5,952.8c0.7,38.8-30,70.7-68.4,71.4c-38.4,0.6-70.1-30.2-70.7-69
		c-0.7-38.8,30-70.7,68.4-71.4S1060.8,914.1,1061.5,952.8z"/>
	<g>
		<g>
			<path class="st0" d="M337.9,598.2c0,0,30.3,12,56,68.6c24.6,54.3,16.3,113.9,12.2,142.6C400.8,846.5,294,942.1,294,942.1
				S427.3,901.8,432.6,793c0,0,18.7,75-9.3,139c-33.8,77.3-48.5,115.3-55.6,178.3c-7.1,63,59.1,183.1,59.1,183.1
				s-66.8-42.1-81.2-129.9s-1.1-142,11.4-170.1s24.5-80.2,24.5-80.2s-50.7,49.5-133.9,44.5c0,0,67.3-48.6,98.8-97.3
				C381.8,805.7,434.6,754.8,337.9,598.2z"/>
			<path class="st0" d="M306.7,1034.7c2.9-12.6,6.6-25.3,11.7-38c2.3-5.6,4.9-11.2,7.7-16.7c4.3,0.9,9.2,1.5,14.6,1.5
				c-0.2,0.2-0.4,0.5-0.7,0.7c10.8-1.2,21-2.7,30.6-4.4c-0.7,3.9-1.1,7.8-1.2,11.6c-12.1,3-24.3,6.1-37.4,9.4
				c-8.9,22.5-18.4,46.8-28,71c-0.9,0.1-1.9,0.2-2.8,0.2C303,1058.3,303.9,1046.6,306.7,1034.7z"/>
			<path class="st0" d="M365.3,840.4c-2.9,0.4-51.4,6.7-51.4,6.7s50.7-27.6,68.2-28.9C399.7,816.9,365.3,840.4,365.3,840.4z"/>
			<path class="st0" d="M341.1,879c-3.2,0.4-32.7,4.8-32.7,4.8s25.1-19,43-14.8C369.1,873.2,341.1,879,341.1,879z"/>
			<path class="st0" d="M324.6,946.7c0,0,8.1,5.1-6.2,14.2c0,0,38.4-1.9,32.8-27.8L324.6,946.7z"/>
			<path class="st0" d="M295.6,1078.1c-9.9,3-19.6,11.1-19.4,16.1c0.1,3.7,8.1,8.4,15.2,8.7c1.8,0.1,4.1-0.3,5.9-0.8
				c17.8-5.1,25.8-19,14.8-25.6c-1.2-0.7-3.1-1.1-4.7-1.7c-1.4,1-3.3,2-4.1,3.1c-2,2.9-3.5,5.7-5.2,8.6c-0.5,0.8-0.9,1.7-1.5,2.7
				C293.7,1086.9,293.6,1085,295.6,1078.1z"/>
			<path class="st0" d="M290.5,1070.9c-2.3-2.5-10.4-4.4-16.1-3.8c-4.2,0.4-10.5,3.3-11.6,5.4c-0.3,0.5-0.1,1.1,0.3,1.6
				c3.8,4.6,18.7,5.3,27.4,1.4c1-0.4,1.6-1,2.4-1.5c-1-0.3-1.9-0.7-3.1-0.8c-3-0.3-6.1-0.4-9.2-0.5c-0.9,0-1.8-0.1-2.9-0.1
				C280.7,1071.3,282.9,1071.1,290.5,1070.9z"/>
		</g>
		<path class="st0" d="M316,1167c6,19,12.6,37.9,20.3,56.2c3.4,8.1,7,16.1,10.8,24c2.9-2.7,6.5-5.2,10.5-6.9
			c-0.2-0.3-0.5-0.6-0.7-0.9c8.5-1.4,16.6-2.2,24.3-2.3c-1.7-6-3.2-12-4.4-18c-10-1.1-20.1-2.2-30.9-3.4
			c-13.5-32.8-28-68-42.4-103.3c-0.7,0.2-1.5,0.3-2.2,0.5C306.1,1131,310.4,1149.2,316,1167z"/>
	</g>
	<g>
		<g>
			<path class="st0" d="M1662.5,598.2c0,0-30.3,12-56,68.6c-24.6,54.3-16.3,113.9-12.2,142.6c5.3,37.2,112.1,132.8,112.1,132.8
				s-133.3-40.3-138.6-149.1c0,0-18.7,75,9.3,139c33.8,77.3,48.5,115.3,55.6,178.3c7.1,63-59.1,183.1-59.1,183.1
				s66.8-42.1,81.2-129.9c14.5-87.8,1.1-142-11.4-170.1c-12.5-28-24.5-80.2-24.5-80.2s50.7,49.5,133.9,44.5c0,0-67.3-48.6-98.8-97.3
				C1618.7,805.7,1565.8,754.8,1662.5,598.2z"/>
			<path class="st0" d="M1693.8,1034.7c-2.9-12.6-6.6-25.3-11.7-38c-2.3-5.6-4.9-11.2-7.7-16.7c-4.3,0.9-9.2,1.5-14.6,1.5
				c0.2,0.2,0.4,0.5,0.7,0.7c-10.8-1.2-21-2.7-30.6-4.4c0.7,3.9,1.1,7.8,1.2,11.6c12.1,3,24.3,6.1,37.4,9.4
				c8.9,22.5,18.4,46.8,28,71c0.9,0.1,1.9,0.2,2.8,0.2C1697.5,1058.3,1696.5,1046.6,1693.8,1034.7z"/>
			<path class="st0" d="M1635.1,840.4c2.9,0.4,51.4,6.7,51.4,6.7s-50.7-27.6-68.2-28.9C1600.7,816.9,1635.1,840.4,1635.1,840.4z"/>
			<path class="st0" d="M1659.4,879c3.2,0.4,32.7,4.8,32.7,4.8s-25.1-19-43-14.8C1631.3,873.2,1659.4,879,1659.4,879z"/>
			<path class="st0" d="M1675.9,946.7c0,0-8.1,5.1,6.2,14.2c0,0-38.4-1.9-32.8-27.8L1675.9,946.7z"/>
			<path class="st0" d="M1704.9,1078.1c9.9,3,19.6,11.1,19.4,16.1c-0.1,3.7-8.1,8.4-15.2,8.7c-1.8,0.1-4.1-0.3-5.9-0.8
				c-17.8-5.1-25.8-19-14.8-25.6c1.2-0.7,3.1-1.1,4.7-1.7c1.4,1,3.3,2,4.1,3.1c2,2.9,3.5,5.7,5.2,8.6c0.5,0.8,0.9,1.7,1.5,2.7
				C1706.7,1086.9,1706.9,1085,1704.9,1078.1z"/>
			<path class="st0" d="M1710,1070.9c2.3-2.5,10.4-4.4,16.1-3.8c4.2,0.4,10.5,3.3,11.6,5.4c0.3,0.5,0.1,1.1-0.3,1.6
				c-3.8,4.6-18.7,5.3-27.4,1.4c-1-0.4-1.6-1-2.4-1.5c1-0.3,1.9-0.7,3.1-0.8c3-0.3,6.1-0.4,9.2-0.5c0.9,0,1.8-0.1,2.9-0.1
				C1719.8,1071.3,1717.6,1071.1,1710,1070.9z"/>
		</g>
		<path class="st0" d="M1684.4,1167c-6,19-12.6,37.9-20.3,56.2c-3.4,8.1-7,16.1-10.8,24c-2.9-2.7-6.5-5.2-10.5-6.9
			c0.2-0.3,0.5-0.6,0.7-0.9c-8.5-1.4-16.6-2.2-24.3-2.3c1.7-6,3.2-12,4.4-18c10-1.1,20.1-2.2,30.9-3.4c13.5-32.8,28-68,42.4-103.3
			c0.7,0.2,1.5,0.3,2.2,0.5C1694.3,1131,1690,1149.2,1684.4,1167z"/>
	</g>
</g>
<g>
	<path class="st0" d="M1412.5,1483.6c-34.5,0.1-68.9,0.1-103.4-0.4c-88.3,55.9-192.8,88.3-304.8,88.3c-94.2,0-183.1-22.9-261.6-63.5
		c-10.7,1.8-21.5,3.4-32.3,4.8c-30.3,3.9-60.9,5.9-91.5,6.4c41.2,30.7,85.9,56.3,133.7,76.5c79.7,33.7,164.4,50.8,251.7,50.8
		s171.9-17.1,251.7-50.8c65.2-27.6,124.8-65.2,177.5-112.2C1426.5,1483.6,1419.5,1483.6,1412.5,1483.6z"/>
	<path class="st0" d="M1281.7,464c27.5-1.1,55.1-1.5,82.6-1.1c-34-22.8-70.2-42.4-108.3-58.5c-79.7-33.7-164.4-50.8-251.7-50.8
		s-171.9,17.1-251.7,50.8c-46.7,19.8-90.6,44.7-131.1,74.5c5.8-0.1,11.6-0.1,17.5-0.2c42.4-0.5,85.1-0.7,127.6,1.7
		c72.4-33.3,152.9-51.8,237.7-51.8c73.7,0,144.2,14,208.9,39.6C1236.1,466.3,1258.9,464.9,1281.7,464z"/>
</g>
</svg>
