<?xml version="1.0" encoding="utf-8"?>
<!-- Generator: Adobe Illustrator 25.2.1, SVG Export Plug-In . SVG Version: 6.00 Build 0)  -->
<svg version="1.1" id="Layer_1" xmlns="http://www.w3.org/2000/svg" xmlns:xlink="http://www.w3.org/1999/xlink" x="0px" y="0px"
	 viewBox="0 0 700 700" style="enable-background:new 0 0 700 700;" xml:space="preserve">
<path d="M498.8,385.6c-4.6,7.6-3.2,18.9,3,25.1L618.1,527c15.1,15.1,15.1,39.6,0,54.8c-15.1,15.1-39.6,15.1-54.8,0L447,465.5
	c-6.2-6.3-17.5-7.5-25.2-2.9c0,0-2.8,2.1-11.8,6.5c-27.3,13.3-58,20.8-90.4,20.8c-114.1,0-206.5-92.5-206.5-206.5
	c0-114.1,92.5-206.5,206.5-206.5c114.1,0,206.5,92.5,206.5,206.5c0,32.5-7.5,63.3-20.9,90.7C500.9,382.8,498.8,385.6,498.8,385.6
	L498.8,385.6z M319.6,412.4c71.3,0,129.1-57.8,129.1-129.1s-57.8-129.1-129.1-129.1S190.5,212,190.5,283.3S248.3,412.4,319.6,412.4z
	"/>
</svg>
