<?xml version="1.0" encoding="utf-8"?>
<!-- Generator: Adobe Illustrator 25.2.1, SVG Export Plug-In . SVG Version: 6.00 Build 0)  -->
<svg version="1.1" id="Layer_1" xmlns="http://www.w3.org/2000/svg" xmlns:xlink="http://www.w3.org/1999/xlink" x="0px" y="0px"
	 viewBox="0 0 2000 2000" style="enable-background:new 0 0 2000 2000;" xml:space="preserve">
<style type="text/css">
	.st0{fill:#4A4A4A;}
</style>
<g>
	<path class="st0" d="M1297.7,1531.7c-32.2-29.2-49.5-68.1-85.5-94.9c-32.8-26.2-72.6-42.6-115.6-35.7
		c-54.1,6.1-96.1,59.1-144.1,46.3c-48-12.7-59.1-110.5-83.1-147.4c-49.3-75.8-150.7-97.3-226.6-48c-49,31.8-76.4,86.7-76.4,141.2
		c0,161.8,207.4,219.6,331.4,218.6c64.1-0.5,129.4-15.3,188.3-48.1c28.4-13.2,67.3-30.5,92.8-7.5c16.4,13.1,141.4,111.2,217.3,1.3
		C1353.2,1573,1328.7,1559.1,1297.7,1531.7L1297.7,1531.7z M613.6,1323.4c9.6-23.7,22-26.9,30.5-34.4c8.6-7.5,56.9-4.4,56.9-4.4
		s-6.4,36-15.5,51.6c-9.1,15.6-54.7,32.9-59.4,33.2C621.4,1369.7,604,1347,613.6,1323.4z M791.5,1387.5
		c18.3,29.5,50.2,100.3,49.6,108.4c-0.5,8.1-8.1,25.1-8.1,25.1s-41.3-12.1-53.1-16.9c-11.8-4.8-93.4,6.1-101.5,5.6
		c-8.1-0.5-28.5,2.2-23.7-9.6c4.8-11.8-7.7-69.3,15.3-112.3c23-43,38.3-44.4,55.8-49C750.6,1332.2,773.2,1358,791.5,1387.5z
		 M839.1,1355.2c1.5,4.2-33.1,5.5-64.3-12.7c-31.2-18.2-36.6-59-36.6-59l44.6,1.2l23.1,15.3C805.8,1300.1,828.8,1326.4,839.1,1355.2
		z"/>
</g>
<path d="M1612.7,960.3c-23.2-66-47.8-99.6-58.5-112c-1.1,0.6-2.2,1.1-3.3,1.7c20.1,77.7-15.6,141-15.6,141s-32.5-2.2-47.2-82.7
	c-1.2,0.5-2.5,0.9-3.7,1.1c-18.2,3.1-35.9,9-53,15.9c-0.3,0.1-0.5,0.2-0.8,0.3c-2.3,1-4.6,2-6.9,3.1c-4.3,2-8.6,4-12.9,6.2
	c-8.6,4.3-17,8.8-25.2,13.7c-7.6,4.5-15,9.3-22.2,14.4c-0.9,0.7-1.9,1.4-2.8,2c1.8-1.2,3-1.7-2.2,1.6c-3.5,3-6.9,6.1-10.2,9.4
	c-1.2,1.3-2.4,2.5-3.6,3.9c-0.3,0.3-0.5,0.6-0.8,1c-2.8,4.8-2.4,3.7-1.2,1.8c-1.5,2.3-3.1,4.5-4.4,6.9c-0.2,0.4-0.5,0.9-0.7,1.3
	c0.6-1.1,0.7-0.9-1.3,2.9c-1,3-1.7,6-2.3,9c-0.8,10.4-0.3,21-1.7,31.4c-1.7,12.9-3.7,25.6-8.1,37.9c-7.7,21.4-19,41.2-35.4,57.1
	c-16.8,16.3-37.5,27.8-59.7,35c-26.8,8.7-56.2,10.5-84.2,11.2c-25.4,0.6-50.9-0.1-76.3,1.8c-3.2,0.3-6.4,0.6-9.6,0.9
	c-19.4,1.4-33.9-17-34.6-34.6c-0.4-8.6,4.1-18.5,10.1-24.5c6.9-6.9,15.1-9.2,24.5-10.1c2.7-0.3,5.3-0.5,8-0.7c0.3,0,0.6-0.1,0.9-0.1
	c5-0.8,9.9-1.8,14.8-3.1c2.9-0.8,5.8-1.6,8.6-2.6c1-0.3,1.9-0.7,2.9-1c3.7-1.8,7.3-3.6,10.8-5.8c0.7-0.4,2-1.4,3.2-2.2
	c0.5-0.4,0.9-0.7,1.1-0.9c2.7-2.4,5.1-5,7.4-7.7c0.1-0.1,0.2-0.3,0.3-0.4c1.1-1.7,2.2-3.4,3.2-5.1c1.1-1.9,2.1-3.8,3.1-5.7
	c0.2-0.3,0.4-0.9,0.7-1.5c0.4-1.1,0.9-2.3,1.1-2.9c0.7-2,1.3-4,1.9-6c2.2-7.3,3.7-14.8,4.9-22.3c2-17.2,2.4-34.5,2.4-51.7
	c-4.4-14.5-7.7-29.1-9.1-44.4c-3.3-34.4,6.2-69.8,20.6-100.8c1.5-3.1,3-6.2,4.6-9.2c1.3-3.6,2.8-7.1,4.3-10.7
	c10.8-24.5,28.7-44.4,50.4-59.7c7.4-5.2,15.3-9.7,23.4-13.8c8.2-5.5,16.7-10.4,25.6-14.3c8.3-3.7,16.3-6.7,24.6-8.9
	c0.2-0.2,0.5-0.5,0.7-0.7c2.9-3,5.8-6,8.5-9.2c0.1-0.2,0.2-0.5,0.3-0.7c0-0.1,0.1-0.3,0.1-0.4c3.8-10.4,6.2-21.2,8.2-32.2
	c-8.9-71.1-26.5-132.3-26.5-132.3s1.2,56.5-64.1,113.7c-65.3,57.2-77.5,132.1-77.5,132.1s-56.1-140.3-64.3-265.4
	c-8.1-125.1,85.5-301,85.5-301s-148.6,83.5-292.3,280S719.9,946.6,719.9,946.6c-55.2-71.4-28.7-240.1-28.7-240.1
	c-305.6,234.4-389.4,447.2-250.7,741.9c13.3,28.2,29.7,54.4,48.5,78.9c13.2,11.3,27.4,19.5,38,28.5c81.7,69.4,121,84.1,128.3,57.1
	c7.4-27-39.3-45.9-84.7-92.1c-45.5-46.2-105-133.2-105-254.8c0-121.6,33.2-214.9,148.6-323c0,0-1.3,132.1,38.7,193.4
	c40,61.3,115.4,49.1,206.3,72.5s93.3,92.1,111.8,160.9s70.4-8.1,109.3-27c45.4-22.1,58.9-24.6,114.2,14.7
	c34.7,24.7,30.7,33.2,114.8,123.4c20.9,22.5,145.5,31.3,121,84.1c-24.6,52.8-193.4,91.5-236.4,150.4c-26.6,36.5-65.8,81.5-103.4,112
	c55.5-9.4,186.4-35.4,271.6-83.7c110.5-62.6,277.5-235.8,307-439.6C1698.7,1100.3,1643.4,1047.5,1612.7,960.3z"/>
<path class="st0" d="M1636.1,489.9c-21.3-87.5-109.6-141.1-197.1-119.8c-87.5,21.3-141.1,109.6-119.8,197.1
	c10.4,42.6,73.7,117.3,50.2,160.9c-23.5,43.5-90.6,37.9-131.9,72.9c-34.4,26.5-49.6,66.5-53,108.2c-5.1,44.3,11.3,83.4,10.5,126.7
	c-1.3,41.2-8,68.4-48.6,89c131.5,20,145.6-137.6,147.4-158.4c0.7-34.2,39.8-50.6,68.8-62.1C1550.4,844.5,1683.2,683,1636.1,489.9z
	 M1568.7,457.8c30.6,40.5,1.1,41.7-13.1,38.8c-14.2-2.9-63.5-89.7-63.5-89.7S1538.1,417.2,1568.7,457.8z M1419.1,510.2
	c-12.3,5.7-41,10.7-29.2-34.4c11.8-45,51.3-64.4,51.3-64.4S1431.4,504.5,1419.1,510.2z M1597.6,643.6c-6.4,5.3-26.2,5.4-43.9-9.9
	c-17.7-15.3-39.6-9.3-59.2-5.5c-19.6,3.8-30.4,24.9-46,16.9c-15.6-8-19.1-24.6-22.4-35.6c-3.3-11-4.6-9.7-0.7-32.8
	c2.8-16.8,10.1-54.2,26.5-75.4c16.4-21.2,24.4-24.6,45.9-15.7c12,5,16.6,7.2,33.5,24.5c17,17.4,43.1,48.1,53,72.9
	C1594.1,607.9,1604,638.3,1597.6,643.6z"/>
<path class="st0" d="M1259.6,172.5c0,0-125.3,149.8-131.4,254.2c-6.1,104.4,38.1,220.2,38.1,220.2s66.2-66.7,93.3-141.6
	S1259.6,172.5,1259.6,172.5z"/>
<path class="st0" d="M687.2,673.6c0,0-127.9-258.2,324.3-415.5C1011.5,258.1,809.9,434.3,687.2,673.6z"/>
</svg>
