<?xml version="1.0" encoding="utf-8"?>
<!-- Generator: Adobe Illustrator 25.2.1, SVG Export Plug-In . SVG Version: 6.00 Build 0)  -->
<svg version="1.1" id="Layer_1" xmlns="http://www.w3.org/2000/svg" xmlns:xlink="http://www.w3.org/1999/xlink" x="0px" y="0px"
	 viewBox="0 0 2000 2000" style="enable-background:new 0 0 2000 2000;" xml:space="preserve">
<style type="text/css">
	.st0{fill:#4A4A4A;}
</style>
<path d="M1789.6,1222.6L1789.6,1222.6c-2.5-4.5-59.4-103.9-137-179.3c23.6-17.6,39.2-31,41.1-32.6c4.1-3.6,6.4-8.6,6.5-14
	c0.1-5.4-2.2-10.6-6.2-14.2c-2-1.8-18.2-16.3-42.7-35.2c75.4-74.8,132.9-173.3,135.5-177.8c5.3-9.2,6.5-20.3,3.3-30.4
	c-3.2-10.1-10.6-18.4-20.3-22.8c-4.7-2.2-109.3-49.3-216.5-64.6c8.8-28,13.7-48,14.3-50.4c1.2-5.2,0.2-10.8-2.9-15.2
	c-3.1-4.4-7.9-7.3-13.3-7.9c-2.6-0.3-24.3-2.6-55.3-3.6c17-104.8,5.7-218.2,5.1-223.3c-1.1-10.6-6.6-20.2-15.2-26.5
	c-8.6-6.3-19.4-8.6-29.8-6.6c-5,1-116.6,24.2-212.2,74.4c-10-27.8-18.2-46.7-19.3-49.1c-2.1-4.9-6.3-8.6-11.3-10.3
	c-5.1-1.7-10.6-1.1-15.2,1.5c-2.3,1.3-21.1,12.1-46.8,29.6c-47.8-94.8-123.7-179.8-127.1-183.6c-7.1-7.9-17.2-12.5-27.9-12.5h-0.2
	c-10.6,0-20.7,4.4-27.8,12.2c-3.5,3.8-80.6,88.5-128.4,185.7c-24.8-16.9-42.9-27.5-45.2-28.8c-4.6-2.7-10.1-3.3-15.2-1.6
	c-5.1,1.6-9.2,5.3-11.4,10.2c-1.1,2.4-9.9,22.3-20.3,51.4c-94.5-48.5-205.9-72.4-210.9-73.5c-10.4-2.2-21.3,0.1-29.9,6.3
	c-8.6,6.2-14.2,15.8-15.4,26.4c-0.6,5.1-12.8,118.4,5.6,224.8c-29.5,0.9-50.1,3-52.7,3.2c-5.3,0.6-10.1,3.3-13.3,7.6
	c-3.1,4.3-4.3,9.7-3.2,14.9c0.5,2.6,5.1,23.9,13.8,53.6c-104.9,16.3-209.1,62.3-213.8,64.4c-9.7,4.3-17.2,12.6-20.5,22.7
	c-3.3,10.1-2.2,21.1,3,30.4c2.5,4.4,59.2,103.3,136.6,178.6c-23.3,18.1-38.8,31.8-40.7,33.6c-4,3.6-6.2,8.6-6.2,13.9
	c0,5.3,2.2,10.4,6.1,14c2,1.8,18.1,16.3,42.6,35.3c-75.2,74.8-132.5,173.3-135.1,177.7c-5.4,9.3-6.6,20.3-3.3,30.4
	c3.2,10.1,10.6,18.4,20.3,22.8c4.7,2.1,108.6,48.8,215.5,64.3c-8.3,28.4-12.7,48.6-13.2,51.1c-1.1,5.2,0,10.6,3.1,15
	c3.1,4.3,7.9,7.1,13.2,7.7c2.6,0.3,24.3,2.6,55.3,3.5c-16.9,104.8-5.4,218.1-4.9,223.2c1.1,10.6,6.6,20.2,15.2,26.5
	c6.5,4.8,14.3,7.3,22.3,7.3c2.5,0,5.1-0.3,7.6-0.8c5.1-1,116.5-24.3,212-74.6c10,27.8,18.3,46.8,19.3,49.1
	c2.2,4.9,6.3,8.6,11.3,10.3c1.9,0.6,3.9,0.9,5.9,0.9c3.2,0,6.4-0.8,9.3-2.4c2.3-1.3,21.2-12.2,46.8-29.7
	c47.9,94.7,123.8,179.6,127.2,183.5c7.1,7.9,17.3,12.4,27.9,12.5h0.1c10.6,0,20.7-4.4,27.8-12.3c3.5-3.8,80-88.1,127.7-184.9
	c24.4,16.6,42.2,27.1,44.5,28.4c4.6,2.7,10.1,3.3,15.2,1.6c5.1-1.6,9.2-5.3,11.4-10.1c1.1-2.4,10-22.3,20.6-51.5
	c94.4,48.5,205.6,72.6,210.6,73.7c2.6,0.6,5.2,0.8,7.9,0.8c7.8,0,15.6-2.4,22-7.1c8.6-6.2,14.2-15.8,15.4-26.4
	c0.6-5.1,13-118.7-5.4-225.2c29.4-0.6,50-2.4,52.5-2.6c5.3-0.5,10.1-3.2,13.3-7.4c3.2-4.2,4.4-9.6,3.5-14.8
	c-0.5-2.6-4.7-24.1-13-54.1c104.6-16.3,208.4-62,213.1-64.1c9.7-4.3,17.2-12.6,20.5-22.7C1796,1242.9,1794.9,1231.8,1789.6,1222.6z
	 M1296.4,883.4l-10.6,125.8l-290.4,295.6L826.5,1126l-0.1-0.1l-132-139.7v-15.8V869.8v-8.2l108.2-112.4h132.3l65.6,51.5l52.9-51.5
	h136.9l106,125l-0.7,8.2L1296.4,883.4z"/>
<path class="st0" d="M1789.6,1222.7L1789.6,1222.7c-2.5-4.5-59.4-103.9-137-179.4c23.6-17.6,39.2-31,41.1-32.6
	c4.1-3.6,6.4-8.6,6.5-14c0.1-5.4-2.2-10.6-6.2-14.2c-2-1.8-18.2-16.3-42.7-35.2c75.4-74.7,132.9-173.3,135.5-177.7
	c5.3-9.2,6.5-20.3,3.3-30.4c-3.2-10.1-10.6-18.4-20.3-22.8c-4.7-2.2-109.3-49.3-216.5-64.6c8.8-28,13.7-48,14.3-50.4
	c1.3-5.2,0.2-10.8-2.9-15.2c-3.1-4.4-7.9-7.3-13.3-7.9c-2.6-0.3-24.3-2.6-55.3-3.6c17.1-104.8,5.7-218.2,5.2-223.3
	c-1.1-10.6-6.6-20.2-15.2-26.5c-8.6-6.3-19.4-8.6-29.8-6.6c-5,1-116.6,24.2-212.2,74.4c-10-27.8-18.2-46.7-19.2-49.1
	c-2.1-4.9-6.3-8.6-11.3-10.3c-5.1-1.7-10.6-1.1-15.2,1.5c-2.3,1.3-21.2,12.1-46.8,29.6c-47.8-94.8-123.6-179.9-127.1-183.7
	c-6-6.7-14.2-11-22.9-12.2l0,102.8c26.8,34.4,63.9,86.6,88.6,139.3c-33.2,27.8-66.7,61.2-88.6,97.1l0,73.7
	c17.8,18.7,49.4,53.5,76.1,91.4c-19.7,7.9-48.8,21.7-76.1,42.1l0,54.3c5.2,5.3,10,10.9,14.3,16.7l20.4-19.8
	c-6.8-8.8-14.5-17-22.8-24.6c29.4-23.2,62.8-37.9,81.3-45l0,0c2.3,1.8,5.1,2.8,7.9,3.4c7,11.2,17,28.6,25.7,49.4l30.5,0
	c-8.6-23-19.2-42.7-27.7-56.9c45-16.4,89.4-28.1,112.8-33.7v0c6.1,22.4,15.6,65.2,15.6,111.5c-14.1-2.4-33.9-5-56.4-5.8l25.7,30.3
	c14.1,1.4,25.9,3.4,34,4.9c-0.8,7.5-2.1,17.9-4.2,30.2l23.3,27.5c4.1-17.8,6.6-33.8,8-45.9c46.4,15,85.7,40.7,103.7,53.6
	c-7.5,19.7-24.9,59.9-53.2,98.7h0c-11-11.1-27.3-26.4-47.4-41.5l-2.9,33.9c15.8,13.1,28.2,25.4,35.7,33.3
	c-12.2,13.7-37.7,40.5-69.6,62.5c-1.5-2.7-3-5.4-4.5-8.1l-20.7,21.1c0.4,0.7,0.7,1.3,1.1,2c-2,1.1-4.1,2.2-6.2,3.2l-42.7,43.4
	c21.1-3.1,41.6-10.8,60.5-20.9c13.7,35.1,19.8,70.2,22.2,87.9c-17.9,4-54.2,10.6-92.8,10.1c2.9-21.7,3.1-44-1.3-65.5l-25.1,25.6
	c0.7,12.5,0,25.3-1.9,37.9c-10-1.3-19.9-3.3-29.4-6.1l-22,22.4c14.6,5.7,30.1,9.3,45.7,11.5c-9.4,36.4-25.1,68.3-33.5,84.1l0,0
	c0,0,0,0-0.1,0c-14.7-6.3-42-19-69.2-37.6l-20.2,20.5c26.1,18.5,52.4,31.7,70,39.5c-27.7,40.2-63.2,75-82,92.1c-1-1-2-2.1-3.1-3.2
	l0,77.5c1-1.7,2-3.4,2.9-5c21.6,38,58.3,74.3,94.6,104.2c-26.1,57.4-66.7,113-93.8,146.9c-1.2-1.5-2.5-3.1-3.7-4.7l0,101
	c1.1,0.1,2.3,0.2,3.5,0.2h0.1c10.6,0,20.7-4.4,27.8-12.3c3.5-3.8,80-88.1,127.8-184.9c24.4,16.6,42.2,27.1,44.5,28.4
	c4.6,2.7,10.1,3.3,15.2,1.6c5.1-1.6,9.2-5.3,11.4-10.1c1.1-2.4,10-22.3,20.6-51.5c94.4,48.5,205.6,72.6,210.6,73.7
	c2.6,0.6,5.2,0.8,7.9,0.8c7.8,0,15.6-2.4,22-7.1c8.6-6.2,14.2-15.8,15.4-26.4c0.6-5.1,13-118.7-5.4-225.2c29.4-0.6,50-2.4,52.5-2.6
	c5.3-0.5,10.1-3.2,13.3-7.4c3.2-4.2,4.4-9.6,3.5-14.8c-0.5-2.6-4.7-24.1-13-54.1c104.6-16.3,208.4-62,213.1-64
	c9.7-4.3,17.2-12.6,20.5-22.7C1796,1243,1794.9,1231.9,1789.6,1222.7z M1240.9,620.5c-22.9,5.3-74.5,18.4-127.3,38
	c-32.8-48.1-73.1-91.2-90.9-109.5c30.2-72.9,133.4-143.6,175.8-170.3l0,0C1217.2,426.2,1259.9,547.6,1240.9,620.5z M1205.5,1619
	c-43.8-27.8-152.8-102.9-178-174.2c19.9-17.9,60.8-57.2,92.3-104c50.7,17.4,101.6,26.6,127.6,30.5
	C1268.9,1448,1224.8,1571.3,1205.5,1619z M1252.3,1333.9c-24.4-3.8-71.3-12.4-117.5-27.9c10-19.3,24.4-51.2,33.2-87.4l0,0
	c38,1.4,73.7-4.2,95.6-8.7C1264.8,1259,1257,1308.8,1252.3,1333.9z M1698.3,768.6L1698.3,768.6c-24.1,36.3-64.6,92.2-110,134.6
	c-41.3-25.9-89.4-50.1-134.8-58c30.5-31.5,54.8-77.4,73.2-120.8C1590.1,731.1,1657,753,1698.3,768.6z M1429.1,402.5
	c1.8,43.4,1.9,112.2-9.9,173.4c-46.4,3.2-97,11.4-137.3,30.3c4.9-43.5-3.5-94.4-15.1-140C1321.6,435.1,1387.2,414,1429.1,402.5z
	 M1297.3,773.9c0.7-51.5-9.7-98.5-16.6-124c66.5-42.8,193.5-39.5,244.5-36.2c-14,49.6-53.6,171.7-113.1,217.9h0
	C1390.2,816.1,1347.9,789.4,1297.3,773.9z M1428.3,880.5c79.5,3,183.7,82.5,223.8,115.7c-39.7,31.5-140.5,105.6-215.4,109.7h0
	c-11.1-25.4-34.6-74.1-67.8-117C1400.3,946.7,1419.4,903.4,1428.3,880.5z M1341.2,1014.8c29.6,39.2,51.2,84,61.2,106.9
	c-21.1,11.2-63.1,31.9-109.4,46.4h0c-3.3-21.5-10.3-55.8-24.4-90.3C1300.3,1056.6,1326,1031.2,1341.2,1014.8z M1436.2,1592.1
	L1436.2,1592.1c-41.8-11.6-107-32.7-161.4-62.7c11.7-46,19.9-97.7,14.2-142.5c39.4,18.2,90,26.4,136.4,29.8
	C1438.4,1478.8,1438.2,1548.4,1436.2,1592.1z M1288.8,1343.9L1288.8,1343.9c5.1-26.4,14.4-82.5,12.4-138.9
	c51-15.6,96.5-38.1,119.3-50.3c62.7,49,98,175.1,109.9,225.2C1479.8,1382.6,1352.4,1384.4,1288.8,1343.9z M1535,1266.9L1535,1266.9
	c-17.5-45.3-41.7-93.1-73.6-126.1c42.4-8,87.7-30.3,127.2-54.2c47.2,42.8,88.3,99.6,112.5,136.3
	C1660.6,1237.9,1596.1,1259,1535,1266.9z"/>
</svg>
