<?xml version="1.0" encoding="utf-8"?>
<!-- Generator: Adobe Illustrator 21.0.0, SVG Export Plug-In . SVG Version: 6.00 Build 0)  -->
<svg version="1.1" id="Layer_1" xmlns="http://www.w3.org/2000/svg" xmlns:xlink="http://www.w3.org/1999/xlink" x="0px" y="0px"
	 viewBox="0 0 700 700" style="enable-background:new 0 0 700 700;" xml:space="preserve">
<g>
	<path d="M560,163.3H140c-14,0-23.3,9.3-23.3,23.3v326.7c0,14,9.3,23.3,23.3,23.3h420c14,0,23.3-9.3,23.3-23.3V396.7H420
		c-25.7,0-46.7-21-46.7-46.7s21-46.7,46.7-46.7h163.3V186.7C583.3,172.7,574,163.3,560,163.3L560,163.3z"/>
	<path d="M443.3,350c0,12.9-10.4,23.3-23.3,23.3s-23.3-10.4-23.3-23.3s10.4-23.3,23.3-23.3S443.3,337.1,443.3,350"/>
</g>
</svg>
